<?xml version="1.0" standalone="no"?>
<!DOCTYPE svg PUBLIC "-//W3C//DTD SVG 20010904//EN"
 "http://www.w3.org/TR/2001/REC-SVG-20010904/DTD/svg10.dtd">
<svg version="1.0" xmlns="http://www.w3.org/2000/svg"
 width="512.000000pt" height="512.000000pt" viewBox="0 0 512.000000 512.000000"
 preserveAspectRatio="xMidYMid meet">
<metadata>
Created by potrace 1.14, written by Peter Selinger 2001-2017
</metadata>
<g transform="translate(0.000000,512.000000) scale(0.100000,-0.100000)"
fill="#000000" stroke="none">
<path d="M0 5000 c0 -103 2 -120 16 -120 12 0 14 -7 9 -32 -4 -18 -11 -37 -16
-42 -5 -6 -9 -855 -9 -2028 l0 -2018 88 -2 c48 -2 122 -2 165 0 48 1 77 -2 77
-8 0 -6 -12 -29 -26 -51 l-26 -41 -121 7 c-67 3 -130 9 -140 11 -14 5 -17 -1
-17 -35 0 -35 3 -40 26 -43 l25 -3 -25 -34 c-19 -26 -26 -47 -26 -82 l0 -47
205 1 c113 1 205 0 205 -3 0 -3 -12 -23 -26 -44 l-27 -39 -141 7 c-77 4 -158
10 -178 13 l-38 6 0 -52 0 -51 135 0 c74 0 135 -3 135 -6 0 -3 -9 -19 -21 -35
-19 -27 -25 -29 -67 -25 -26 3 -77 8 -114 11 l-68 6 0 -111 0 -110 2560 0
2560 0 0 2560 0 2560 -2560 0 -2560 0 0 -120z m568 -67 c-2 -5 -12 -25 -23
-45 l-19 -38 -70 0 c-71 -1 -239 -14 -308 -26 l-38 -6 12 34 c6 18 16 38 22
45 22 23 435 57 424 36z m382 -19 c189 -31 353 -78 550 -159 250 -104 556
-317 823 -574 153 -147 388 -433 582 -708 l50 -71 376 556 376 557 521 3 c287
1 522 0 522 -3 0 -3 -269 -405 -598 -893 -330 -488 -620 -919 -646 -958 l-47
-71 611 -979 611 -979 -503 -3 c-277 -1 -507 0 -513 2 -5 2 -174 267 -375 590
-201 322 -368 586 -371 586 -3 0 -42 -53 -86 -118 -99 -144 -277 -374 -388
-502 -109 -125 -328 -338 -435 -423 -132 -106 -346 -248 -354 -235 -1 2 0 30
2 63 l4 60 56 40 c190 132 402 326 569 520 85 98 278 350 343 445 41 62 -4 8
-115 -135 -149 -193 -190 -241 -335 -389 -177 -181 -314 -295 -515 -426 -131
-85 -454 -234 -471 -217 -3 3 0 29 7 59 l13 54 65 27 c94 38 306 161 403 233
241 179 504 449 693 714 37 52 79 110 93 127 13 18 22 33 19 33 -3 0 -47 -55
-98 -122 -455 -597 -918 -926 -1473 -1049 -72 -15 -132 -27 -134 -25 -4 4 29
88 39 100 4 5 48 19 96 31 265 68 589 239 803 424 205 177 430 428 580 646 55
81 25 47 -63 -67 -172 -228 -398 -458 -581 -594 -284 -211 -520 -316 -851
-380 -113 -21 -384 -49 -393 -40 -1 2 7 24 19 49 21 43 26 47 68 52 389 50
617 123 869 277 224 137 490 386 686 643 46 60 17 30 -114 -119 -121 -138
-240 -251 -367 -349 -272 -208 -510 -311 -862 -374 -95 -17 -544 -30 -636 -18
l-55 6 30 43 29 43 233 6 c299 7 454 32 674 112 372 135 698 407 1028 859 176
242 443 654 472 729 16 44 -379 636 -585 877 -105 123 -250 267 -354 352 -54
44 -95 83 -92 87 4 3 25 18 48 32 l41 25 56 -38 c150 -105 340 -288 511 -490
50 -60 93 -108 96 -108 9 0 -124 169 -214 272 -184 210 -416 411 -596 516
l-78 45 43 38 43 37 65 -36 c255 -141 514 -367 794 -692 37 -44 38 -44 11 -5
-38 53 -145 180 -242 286 -231 252 -558 489 -813 589 -30 12 -57 24 -59 26 -7
6 61 74 74 74 7 0 56 -18 111 -40 323 -132 666 -396 968 -747 48 -57 91 -103
94 -103 3 0 -2 8 -10 18 -8 9 -54 64 -103 122 -239 284 -483 501 -728 649
-160 96 -458 216 -589 238 l-37 5 31 44 c17 24 36 44 42 44 6 0 61 -13 123
-30 464 -122 850 -384 1302 -885 53 -59 50 -55 -15 25 -284 346 -596 606 -919
768 -260 129 -497 196 -807 227 l-67 6 27 46 27 45 85 -7 c47 -3 128 -13 180
-21z m-78 -151 l27 -8 -27 -43 c-21 -33 -32 -41 -47 -38 -35 9 -315 28 -345
24 -17 -3 -30 -3 -30 -1 0 2 9 22 21 45 l21 41 176 -6 c98 -4 189 -10 204 -14z
m-492 2 c0 -3 -6 -20 -14 -38 l-13 -33 -143 -17 c-78 -10 -144 -16 -145 -15
-1 2 2 17 6 34 9 30 10 31 116 48 60 10 115 19 123 21 27 5 70 5 70 0z m260
-185 l-20 -40 -135 0 c-74 0 -135 2 -135 4 0 1 5 17 11 34 12 34 15 35 222 40
l77 2 -20 -40z m229 20 c77 -10 251 -47 260 -55 2 -2 -11 -22 -28 -44 -29 -36
-35 -39 -58 -30 -37 14 -269 59 -304 59 l-30 0 22 40 c25 45 22 44 138 30z
m-599 -17 c-1 -40 -14 -52 -63 -58 -29 -3 -69 -8 -90 -11 -36 -6 -38 -4 -35
17 3 20 13 26 73 40 79 19 115 22 115 12z m538 -139 c49 -4 82 -11 82 -18 0
-6 -10 -23 -23 -38 l-22 -27 -121 17 -121 17 14 34 c14 33 15 33 61 27 26 -3
84 -9 130 -12z m-281 -24 l-11 -30 -83 0 c-64 0 -83 3 -83 14 0 30 35 42 132
45 l56 1 -11 -30z m-257 -9 c0 -15 -10 -18 -75 -24 l-60 -6 60 18 c72 23 75
24 75 12z m958 -68 l93 -36 -37 -38 -37 -38 -51 21 c-76 31 -176 66 -224 78
l-43 11 28 38 27 38 75 -19 c42 -11 117 -36 169 -55z m-480 -59 c31 -6 31 -7
17 -35 -13 -24 -20 -28 -43 -23 -15 3 -48 8 -73 12 -43 6 -46 9 -38 30 7 19
16 22 57 22 27 0 63 -3 80 -6z m-218 -19 c0 -16 -53 -21 -87 -8 -14 6 -11 9
17 14 59 11 70 10 70 -6z m487 -25 l82 -22 -26 -35 c-16 -21 -33 -33 -42 -30
-30 9 -176 50 -189 53 -10 3 -9 11 4 35 14 28 19 31 52 26 21 -2 74 -15 119
-27z m224 -76 c86 -35 230 -114 225 -123 -3 -4 -23 -20 -46 -36 l-40 -28 -38
26 c-22 14 -80 46 -131 71 l-92 47 27 34 c14 19 27 35 28 35 2 0 31 -12 67
-26z m-554 -3546 c-3 -7 -12 -31 -21 -54 l-17 -41 -82 -6 c-98 -8 -437 -9
-437 -2 0 3 10 21 23 40 19 30 27 35 62 35 83 1 382 21 420 29 57 12 58 12 52
-1z m848 -55 c-2 -10 -7 -39 -10 -64 l-6 -47 -72 -32 c-135 -60 -319 -121
-469 -154 l-28 -6 19 47 18 47 134 46 c144 50 299 115 364 154 49 30 54 30 50
9z m-455 -21 c0 -5 -7 -29 -16 -54 -10 -31 -22 -48 -37 -52 -95 -27 -300 -60
-440 -72 l-87 -7 25 45 c25 45 26 45 89 52 81 8 291 50 376 75 76 22 90 24 90
13z m-259 -270 c-19 -38 -23 -40 -78 -46 -91 -10 -294 -26 -336 -26 l-37 0 22
35 c19 28 31 35 63 39 22 3 103 12 181 21 77 9 153 19 170 24 37 10 40 2 15
-47z"/>
<path d="M2500 3746 c0 -2 8 -10 18 -17 15 -13 16 -12 3 4 -13 16 -21 21 -21
13z"/>
<path d="M2410 3606 c0 -2 8 -10 18 -17 15 -13 16 -12 3 4 -13 16 -21 21 -21
13z"/>
<path d="M2300 3486 c0 -2 8 -10 18 -17 15 -13 16 -12 3 4 -13 16 -21 21 -21
13z"/>
<path d="M2330 3446 c0 -2 8 -10 18 -17 15 -13 16 -12 3 4 -13 16 -21 21 -21
13z"/>
<path d="M2210 3346 c0 -2 8 -10 18 -17 15 -13 16 -12 3 4 -13 16 -21 21 -21
13z"/>
<path d="M2339 1813 c-13 -16 -12 -17 4 -4 9 7 17 15 17 17 0 8 -8 3 -21 -13z"/>
<path d="M2129 1793 c-13 -16 -12 -17 4 -4 9 7 17 15 17 17 0 8 -8 3 -21 -13z"/>
<path d="M2499 1763 c-13 -16 -12 -17 4 -4 9 7 17 15 17 17 0 8 -8 3 -21 -13z"/>
<path d="M2099 1753 c-13 -16 -12 -17 4 -4 9 7 17 15 17 17 0 8 -8 3 -21 -13z"/>
</g>
</svg>
