<svg width="1440" height="93" viewBox="0 0 1440 93" fill="none" xmlns="http://www.w3.org/2000/svg">
<path d="M1516.24 63.4408C1513.1 63.8762 1510.24 63.9297 1507.1 64.5534L1507.1 64.7418C1505.66 64.0151 1503.94 63.6705 1501.93 63.5196C1496.78 63.2391 1491.33 62.9639 1486.18 62.6834C1485.61 62.6941 1485.32 62.8877 1485.62 63.2591C1485.62 63.4474 1485.91 63.6304 1485.91 63.6304C1488.78 64.3303 1491.94 65.0249 1495.1 65.5311C1495.96 65.7035 1496.82 65.8758 1497.68 65.8597C1503.11 65.3816 1508.57 66.7867 1514.01 67.0619C1515.16 67.0405 1516.31 67.3958 1517.45 67.3745C1523.46 67.074 1529.19 67.9088 1535.22 68.5499C1536.94 68.7062 1538.37 68.8678 1540.09 68.8358C1545.23 68.5513 1550.11 69.2138 1554.99 70.0647C1554.99 70.0647 1555.28 70.2477 1555.28 70.436C1552.14 71.0598 1548.99 70.7419 1545.84 70.424C1539.53 69.5998 1533.23 69.529 1526.65 69.4636C1524.93 69.4956 1523.5 69.5223 1521.78 69.366C1516.62 68.5205 1511.46 68.4283 1506.02 68.3415C1505.45 68.3522 1505.17 68.5459 1505.17 68.7342C1505.18 68.9225 1505.47 69.1055 1505.47 69.1055C1508.92 69.9831 1512.36 70.6723 1516.08 70.4145C1518.08 70.3772 1520.08 70.3398 1522.37 70.297C1524.66 70.2543 1526.95 70.5882 1528.41 71.8799C1529.86 73.1715 1531.29 73.1448 1533 72.7361C1535.28 72.1283 1537.57 72.0856 1539.56 71.6715C1541.28 71.4511 1543.28 71.4137 1545.01 71.9467C1546.73 72.4796 1548.45 72.4476 1550.45 72.4102C1551.31 72.3942 1552.17 72.5665 1552.75 73.1208C1553.05 73.4921 1553.62 73.8581 1553.91 74.0411C1556.79 74.9294 1559.67 75.8176 1563.1 75.7535C1565.68 75.7054 1567.97 76.0393 1570.55 76.3679C1574.85 76.8528 1579.15 77.3377 1583.45 77.4459C1586.88 77.5701 1590.33 78.071 1593.48 78.3889C1594.91 78.5505 1596.06 78.7175 1597.49 78.6908C1605.79 78.7242 1613.83 80.2696 1621.85 80.4967C1622.13 80.4914 1622.43 81.0511 1622.43 81.2394C1622.44 81.4277 1621.87 81.6267 1621.58 81.8204C1621.3 81.8258 1620.73 82.0248 1620.15 81.8471C1617.58 81.7069 1615 81.755 1612.71 81.6094C1607.27 81.3342 1601.82 80.8707 1596.38 80.5955C1591.23 80.315 1585.78 80.0398 1580.62 79.571C1577.47 79.4414 1574.32 79.3119 1571.18 79.1823C1570.03 79.2037 1568.89 79.225 1567.74 78.8697C1564.29 78.1805 1560.57 78.2499 1556.85 78.3194C1549.41 78.4583 1542.25 78.0268 1534.81 77.7891C1533.67 77.8104 1532.52 77.6435 1531.37 77.6648C1529.09 77.7076 1526.79 77.562 1524.5 77.228C1521.63 76.7165 1518.76 76.5815 1515.61 76.452C1510.75 76.3545 1506.17 76.2516 1501.3 75.9658C1496.71 75.6746 1492.13 75.195 1487.83 74.8985C1483.82 74.5966 1479.52 74.4884 1475.52 74.3749C1471.79 74.256 1468.36 74.1318 1464.63 73.8245C1461.19 73.512 1457.76 73.3877 1454.32 73.2635C1443.44 72.7132 1432.56 72.3512 1421.39 71.8062C1416.52 71.5203 1411.94 71.2291 1407.07 70.9433C1400.19 70.6948 1393.32 70.4464 1386.45 70.0096C1377.85 69.6048 1369.26 69.2001 1360.39 69.1774C1355.24 69.2735 1350.37 68.7993 1345.5 68.3252C1342.92 68.1849 1340.63 68.0393 1338.05 67.8991C1333.18 67.8015 1328.6 67.6987 1323.73 67.4128C1322.02 67.4449 1320.58 67.2832 1318.87 67.3153C1314.87 67.5784 1310.57 67.2819 1306.56 66.98C1302.83 66.6728 1299.4 66.7369 1295.68 66.618C1289.38 66.5472 1282.79 66.2934 1276.5 66.2226C1274.78 66.2547 1272.78 66.2921 1271.06 66.1358C1265.04 65.683 1258.75 65.6121 1252.45 65.7297C1250.45 65.7671 1248.45 65.6161 1246.16 65.6589C1240.14 65.3944 1234.42 65.1246 1228.41 65.2368C1226.41 65.2741 1224.4 65.3115 1222.11 65.1659C1216.67 64.7024 1211.23 64.9923 1205.8 64.9055C1200.64 64.8133 1195.78 64.7158 1190.63 64.6236C1186.9 64.5047 1183.19 64.5741 1179.75 64.4499C1174.6 64.3577 1169.73 64.2602 1164.58 64.1681C1163.15 64.1948 1161.71 64.0331 1160.57 64.0545C1153.43 64.5647 1146.26 64.1333 1139.4 64.2615C1135.39 64.3363 1131.1 64.0398 1127.09 64.1145C1119.65 64.0651 1111.93 64.021 1104.48 63.9716C1099.33 63.8794 1094.47 63.9702 1089.32 63.8781C1086.45 63.7431 1083.31 63.8019 1080.45 64.0437C1079.02 64.2587 1077.59 64.2854 1076.44 64.1185C1073.58 63.7952 1070.43 63.854 1067.57 63.9074C1061.27 63.8366 1054.69 63.7711 1048.4 63.8887C1047.25 63.91 1046.11 63.7431 1044.96 63.7644C1039.25 64.2479 1033.52 63.9781 1027.8 64.085C1021.22 64.2078 1014.64 64.519 1007.78 64.6473C1003.49 64.7274 999.195 64.6192 994.618 64.7047C992.902 64.7367 990.896 64.5858 989.183 64.8062C985.185 65.2576 981.463 65.1387 977.455 65.0252C972.303 64.933 967.433 64.6472 962.294 65.3083C961.722 65.319 960.864 65.3351 960.292 65.3457C950.556 64.9624 940.555 65.7144 930.826 65.7077C921.669 65.6903 912.515 65.8612 903.362 66.0322C897.069 66.1497 890.496 66.6493 884.196 66.3901C872.475 66.9858 860.74 66.8282 849.309 67.6069C841.878 68.1225 834.151 68.0784 826.714 68.2173C823.854 68.2707 820.707 68.3294 817.847 68.3829C810.409 68.5218 802.689 68.8543 795.255 69.1816C789.534 69.2884 783.814 69.3953 778.096 69.6905C767.805 70.2594 757.507 70.4518 747.209 70.6441C744.349 70.6975 741.202 70.7563 738.345 70.998C728.337 71.3734 718.329 71.7487 708.028 71.7527C706.311 71.7847 704.309 71.8221 702.596 72.0425C693.166 72.7838 683.441 72.9654 673.719 73.3354C666.285 73.6626 659.133 73.7962 651.7 74.1234C648.553 74.1822 645.41 74.4293 642.246 73.5464C641.385 73.3741 640.241 73.3954 639.672 73.5945C636.26 74.7886 632.541 74.858 628.822 74.9275C620.244 75.2761 611.949 75.431 603.371 75.7796C599.08 75.8598 594.793 76.1282 590.505 76.3967C589.075 76.4234 587.645 76.4501 586.504 76.6598C583.644 76.7132 581.631 76.1856 581.308 74.1193C581.308 74.1193 580.446 73.947 580.16 73.9523C579.874 73.9577 579.878 74.146 579.595 74.3397C579.06 76.4221 577.068 77.0245 574.207 77.0779C567.914 77.1954 561.911 77.4959 555.621 77.8018C542.47 78.4242 529.604 79.0413 516.446 79.287C512.441 79.3618 508.157 79.8186 504.153 79.8934C495.289 80.2474 486.424 80.6013 477.274 80.9606C475.844 80.9873 474.414 81.014 473.273 81.2237C465.274 81.9383 457.264 82.0879 449.255 82.2375C439.819 82.6021 430.386 83.1551 421.236 83.5144C418.089 83.5731 414.946 83.8202 411.514 83.8843C401.791 84.2543 391.783 84.6296 382.064 85.1879C379.204 85.2414 376.064 85.6768 373.207 85.9186C366.062 86.4288 358.904 86.1857 352.043 86.5022C349.185 86.744 346.611 86.7921 343.744 86.4688C342.596 86.3018 341.452 86.3232 340.311 86.5329C333.456 87.2261 326.581 86.7893 319.719 87.1059C313.143 87.4171 306.561 87.3516 299.699 87.6682C293.12 87.7911 286.544 88.1023 279.682 88.4188C277.68 88.4562 275.391 88.499 273.682 88.9077C271.114 89.3324 268.836 89.9402 266.255 89.6116C263.677 89.4713 261.395 89.8907 258.811 89.3738C257.66 89.0185 255.947 89.2389 254.806 89.4486C247.958 90.5185 240.803 90.4637 233.652 90.5973C225.071 90.7576 216.775 90.9125 208.194 91.0727C202.473 91.1796 196.752 91.2864 191.031 91.3933C182.732 91.3599 174.443 91.8915 166.424 91.4761C165.566 91.4921 164.708 91.5081 163.563 91.5295C156.712 92.411 149.833 91.7859 142.964 91.7258C141.248 91.7578 139.242 91.6069 137.526 91.6389C131.523 91.9395 125.512 91.8633 119.791 91.9702C117.789 92.0076 115.786 92.045 113.498 92.0877C111.496 92.1251 109.493 92.1625 107.205 92.2052C102.049 91.9247 96.6143 92.0262 91.4654 92.1224C86.5992 92.0249 81.7363 92.1157 77.1562 92.0128C69.4294 91.9687 61.6995 91.7363 53.9727 91.6922C43.6682 91.5079 33.367 91.5118 23.0591 91.1392C14.7568 90.9174 6.16189 90.3243 -2.14372 89.9143C-5.29366 89.7847 -8.45389 89.0901 -11.6072 88.7722C-15.6221 88.282 -18.7922 87.0224 -22.2485 85.7682C-23.9751 85.2352 -25.1396 84.1266 -25.4461 83.0019C-26.0452 81.5059 -26.6446 80.0099 -26.9544 78.6969C-27.2912 75.8772 -27.6281 73.0575 -25.3872 70.3781C-25.1114 69.8077 -24.8355 69.2374 -24.5597 68.667C-23.4596 66.1973 -21.4878 64.4649 -18.0789 63.0824C-16.0901 62.2917 -14.098 61.6893 -11.5202 61.8295C-8.65973 61.7761 -5.50967 61.9057 -2.64921 61.8523C-1.21892 61.8255 0.211254 61.7988 1.35195 61.5891C4.48492 60.777 7.63486 60.9066 10.7848 61.0362C12.5044 61.1924 14.5069 61.155 16.2232 61.123C17.9395 61.0909 19.9419 61.0535 21.6481 60.4565C24.2055 59.4667 26.7765 59.2303 29.6403 59.3652C38.5113 59.3879 47.3753 59.034 56.5356 59.2397C61.974 59.3265 67.4055 59.0367 72.8439 59.1235C75.7044 59.0701 78.8544 59.1997 81.7149 59.1463C85.7196 59.0715 89.4415 59.1904 93.4462 59.1156C102.031 59.1436 110.892 58.6014 119.487 59.1944C119.773 59.1891 120.059 59.1837 120.059 59.1837C121.203 59.1624 122.054 58.7697 122.323 57.8227C122.31 57.0693 123.165 56.865 124.02 56.6606C124.592 56.6499 125.446 56.4455 126.022 56.6232C131.178 56.9037 136.612 56.8022 141.761 56.706C146.624 56.6152 151.211 57.0947 156.067 56.6273C157.211 56.6059 158.355 56.5845 159.496 56.3748C162.057 55.5734 164.921 55.7083 167.502 56.0369C169.508 56.1878 171.51 56.1504 173.509 55.9247C175.794 55.6936 178.083 55.6509 180.371 55.6082C181.515 55.5868 182.66 55.5654 183.807 55.7324C187.543 56.6046 191.258 56.3468 195.263 56.272C200.694 55.9822 206.133 56.069 211.857 56.1505C212.143 56.1452 212.429 56.1398 212.432 56.3282C212.725 56.6995 212.443 56.8932 211.87 56.9039C211.302 57.1029 210.444 57.1189 209.875 57.3179C209.875 57.3179 209.592 57.5116 209.596 57.6999C209.599 57.8883 209.602 58.0766 209.889 58.0713C210.178 58.2543 210.753 58.4319 211.04 58.4266C213.042 58.3892 215.044 58.3518 217.047 58.3144C217.905 58.2984 218.756 57.9057 219.032 57.3353C219.86 55.6243 221.852 55.0219 224.137 54.7908C227.852 54.533 231.278 54.0922 235.003 54.3994C236.437 54.5611 237.867 54.5344 239.008 54.3247C240.721 54.1043 242.723 54.0669 244.446 54.4115C245.308 54.5838 246.166 54.5678 247.307 54.3581C249.306 54.1323 251.304 53.9066 253.314 54.2459C254.175 54.4182 255.03 54.2138 255.885 54.0095C257.315 53.9827 258.738 53.5794 259.886 53.7463C266.189 54.1938 272.183 53.3283 278.479 53.3991C290.497 53.363 302.211 52.3907 314.232 52.543C314.804 52.5323 315.662 52.5163 316.234 52.5056C329.665 51.5011 343.113 51.4384 356.55 50.8106C359.983 50.7465 363.412 50.4941 366.848 50.6183C369.998 50.7479 373.141 50.5008 376.281 50.0653C378.852 49.8289 381.137 49.5978 383.711 49.5498C392.003 49.2065 400.295 48.8632 408.298 48.337C410.014 48.3049 411.444 48.2782 413.161 48.2462C414.305 48.2248 415.452 48.3918 416.593 48.1821C422.876 47.4995 429.459 47.565 435.752 47.4475C438.612 47.394 441.759 47.3353 444.616 47.0935C448.045 46.8411 451.474 46.5886 454.91 46.7129C455.768 46.6968 456.627 46.6808 457.771 46.6594C461.2 46.407 464.629 46.1545 468.062 46.0904C471.491 45.838 474.923 45.7739 478.346 45.1448C480.055 44.7361 482.054 44.5103 483.778 44.8549C487.506 45.3505 490.932 44.9097 494.651 44.8403C498.369 44.7708 502.088 44.7014 505.521 44.6373C511.81 44.3314 517.814 44.0309 524.107 43.9133C526.395 43.8706 528.68 43.6395 530.979 44.1618C531.265 44.1565 531.268 44.3448 531.272 44.5331C531.275 44.7215 531.279 44.9098 531.279 44.9098C530.996 45.1035 530.713 45.2972 530.145 45.4962C527.863 45.9156 525.575 45.9583 523.283 45.8127C518.13 45.7205 512.706 46.3871 507.543 45.7299C504.4 45.977 501.26 46.4124 498.117 46.6595C496.404 46.8799 494.691 47.1003 493.258 46.9387C490.387 46.4271 487.82 46.8518 485.252 47.2766C483.825 47.4916 482.395 47.5183 481.251 47.5397C476.102 47.6359 471.242 47.915 466.093 48.0112C464.949 48.0326 463.802 47.8656 462.657 47.887C459.793 47.7521 456.647 47.8108 453.793 48.2409C451.798 48.655 449.795 48.6924 447.793 48.7298C441.493 48.4706 434.924 49.1585 428.631 49.276C427.201 49.3028 425.774 49.5178 424.633 49.7275C421.214 50.545 417.496 50.6144 413.777 50.6838C411.202 50.7319 408.628 50.78 406.34 50.8227C405.481 50.8388 404.627 51.0431 403.483 51.0645C404.058 51.2422 404.351 51.6135 404.637 51.6081C409.214 51.5227 413.79 51.4372 418.367 51.3517C421.514 51.293 424.66 51.2342 428.668 51.3477C424.977 52.9239 421.844 53.736 418.405 53.4234C415.537 53.1002 412.391 53.1589 409.54 53.7774C407.259 54.1968 404.967 54.0512 402.675 53.9056C400.67 53.7546 398.667 53.792 396.672 54.2061C394.393 54.8138 392.105 54.8566 389.806 54.3343C386.65 53.8281 383.503 53.8868 380.363 54.3223C377.22 54.5694 374.077 54.8165 370.931 54.8752C366.923 54.7617 362.635 55.0302 358.637 55.4816C353.781 55.9491 349.211 56.4113 344.338 55.9371C343.191 55.7701 342.05 55.9798 340.906 56.0012C335.764 56.474 330.335 56.9522 325.187 57.0484C323.47 57.0804 322.043 57.2954 320.916 58.2585C316.622 58.1503 316.622 58.1503 314.916 58.7474C316.925 59.0866 318.924 58.8609 320.63 58.2638C321.781 58.6191 323.218 58.9691 324.648 58.9424C332.651 58.4161 340.667 58.6432 348.677 58.4936C356.4 58.3494 364.12 58.0168 371.836 57.4959C374.693 57.2541 377.268 57.2061 380.128 57.1526C382.989 57.0992 385.56 56.8628 388.42 56.8094C391.849 56.5569 395.279 56.3045 398.715 56.4287C400.717 56.3913 402.716 56.1656 405.004 56.1229C407.865 56.0694 410.432 55.6447 413.3 55.9679C414.447 56.1349 415.588 55.9252 416.732 55.9038C421.016 55.447 425.304 55.1785 429.598 55.2867C431.886 55.244 434.175 55.2013 436.463 55.1585C438.465 55.1211 440.468 55.0837 442.756 55.041C444.758 55.0036 446.202 55.7302 447.081 56.8442C447.084 57.0326 447.37 57.0272 447.66 57.2102C447.946 57.2049 448.235 57.3879 448.232 57.1995C450.227 56.7855 451.933 56.1884 453.929 55.7743C454.498 55.5753 454.205 55.204 453.915 55.021C453.34 54.8433 453.047 54.472 453.619 54.4613C456.19 54.2249 458.765 54.1768 461.053 54.1341C464.2 54.0753 467.346 54.0166 470.486 53.5811C472.771 53.3501 475.059 53.3073 477.348 53.2646C478.778 53.2379 480.205 53.0228 481.053 52.4418C481.335 52.2481 481.615 51.8661 481.611 51.6778C481.608 51.4894 481.315 51.1181 481.025 50.9351C480.736 50.7521 480.164 50.7628 479.592 50.7735C477.876 50.8055 476.445 50.8322 474.732 51.0526C471.303 51.3051 467.881 51.9342 464.448 51.9983C461.305 52.2454 458.155 52.1158 455.005 51.9863C452.141 51.8513 448.995 51.9101 446.141 52.3402C443.287 52.7703 440.137 52.6407 437.274 52.5058C436.988 52.5112 436.698 52.3282 436.695 52.1398C436.977 51.9461 436.971 51.5695 437.257 51.5641C438.397 51.3544 439.538 51.1447 440.682 51.1234C446.4 50.8282 452.121 50.7213 457.842 50.6145C465.279 50.4756 472.427 50.1537 479.864 50.0148C484.155 49.9347 488.446 49.8545 492.723 49.021C495.005 48.6016 496.738 49.5113 498.744 49.6622C499.316 49.6515 499.609 50.0228 499.329 50.4049C499.333 50.5932 499.05 50.7869 498.764 50.7922C497.909 50.9966 497.054 51.2009 496.196 51.217C493.905 51.0714 491.609 50.7374 489.328 51.1568C488.756 51.1675 487.901 51.3719 487.625 51.9422C487.346 52.3243 488.211 52.6849 489.072 52.8572C489.644 52.8465 489.93 52.8412 490.502 52.8305C491.074 52.8198 491.361 52.8145 491.933 52.8038C498.226 52.6863 504.808 52.7517 511.101 52.6342C511.674 52.6235 511.959 52.6182 512.535 52.7958C512.824 52.9788 513.4 53.1565 513.403 53.3448C513.407 53.5331 513.127 53.9151 512.845 54.1088C512.566 54.4908 511.997 54.6899 511.149 55.2709C512.579 55.2442 513.437 55.2282 514.295 55.2121C515.443 55.3791 516.58 54.9811 517.142 54.4054C518.825 52.4899 521.675 51.8715 524.529 51.4414C528.241 50.9953 532.235 50.3555 535.967 51.0394C537.69 51.384 539.689 51.1583 541.406 51.1262C545.124 51.0568 548.839 50.799 552.269 50.5466C554.271 50.5092 556.277 50.6601 558.286 50.9994C560.584 51.5216 562.587 51.4842 564.862 50.6882C565.713 50.2955 567.14 50.0804 568.001 50.2527C570.293 50.3983 572.575 49.9789 574.856 49.5595C576.283 49.3445 578 49.3124 579.44 49.8507C578.316 51.0021 576.607 51.4108 574.894 51.6312C573.753 51.8409 572.609 51.8623 571.468 52.072C571.182 52.0773 571.189 52.454 570.906 52.6477C570.906 52.6477 571.195 52.8307 571.481 52.8253C574.349 53.1486 576.923 53.1005 579.487 52.4874C580.628 52.2777 581.183 51.3253 580.598 50.5827C580.305 50.2113 579.726 49.8454 579.433 49.474C580.867 49.6357 582.586 49.7919 584.02 49.9536C584.882 50.1259 585.733 49.7332 586.298 49.3458C586.588 49.5288 586.877 49.7118 587.167 49.8948C588.9 50.8044 590.906 50.9554 592.894 50.1646C594.311 49.3846 596.021 48.9758 598.023 48.9384C603.165 48.4656 608.031 48.5631 613.18 48.467C615.469 48.4242 616.619 48.7795 616.933 50.2809C616.939 50.6575 617.512 50.6469 618.08 50.4478C618.363 50.2542 618.932 50.0551 618.925 49.6785C620.039 47.9621 621.748 47.5534 624.322 47.5053C626.325 47.4679 627.765 48.0062 628.361 49.3138C628.657 49.8735 629.515 49.8575 630.081 49.4701C631.767 47.743 634.045 47.1353 636.905 47.0819C640.624 47.0124 644.339 46.7546 647.772 46.6905C648.344 46.6799 649.202 46.6638 649.774 46.6531C651.208 46.8148 652.359 47.1701 652.948 48.1011C653.241 48.4724 653.533 48.8437 654.392 48.8277C655.25 48.8117 655.529 48.4297 655.808 48.0476C656.087 47.6656 656.077 47.1006 656.356 46.7186C656.636 46.3366 657.198 45.7609 657.77 45.7502C660.341 45.5138 663.195 45.0837 665.779 45.6006C669.511 46.2845 672.944 46.2204 676.649 45.3976C678.645 44.9836 680.644 44.7578 682.649 44.9088C686.371 45.0277 690.09 44.9582 693.523 44.8941C695.811 44.8514 698.096 44.6203 700.381 44.3892C701.239 44.3732 701.801 43.7975 701.215 43.0548C701.209 42.6782 700.919 42.4952 700.63 42.3122C700.619 41.7472 700.613 41.3705 701.467 41.1661C702.322 40.9618 703.174 40.5691 704.032 40.553C706.031 40.3273 708.036 40.4783 710.325 40.4355C711.469 40.4141 712.617 40.5811 713.757 40.3714C716.894 39.7476 719.761 40.0709 722.07 41.1582C721.215 41.3625 720.067 41.1956 718.637 41.2223C717.207 41.249 715.777 41.2757 714.636 41.4854C713.206 41.5121 711.779 41.7272 710.635 41.7485C709.208 41.9636 708.36 42.5446 708.37 43.1096C708.38 43.6746 709.252 44.4119 710.682 44.3852C714.115 44.3211 717.547 44.257 720.98 44.1929C721.266 44.1876 721.841 44.3652 722.131 44.5482L722.138 44.9249C720.711 45.1399 718.998 45.3603 717.571 45.5754C716.999 45.586 716.434 45.9734 715.865 46.1724C715.865 46.1724 715.586 46.5544 715.872 46.5491C717.598 47.082 719.321 47.4267 721.031 47.0179C723.598 46.5932 725.877 45.9854 728.451 45.9374C728.737 45.932 729.016 45.55 729.013 45.3617C729.003 44.7967 728.996 44.42 729.854 44.404C730.712 44.3879 731.57 44.3719 732.429 44.3559C732.715 44.3505 733.29 44.5282 733.583 44.8995C735.619 46.7455 738.204 47.2624 741.34 46.6386C742.767 46.4236 743.911 46.4022 745.338 46.1872C745.624 46.1818 745.9 45.6115 745.611 45.4285C745.604 45.0518 745.022 44.4975 745.301 44.1155C745.58 43.7335 746.435 43.5291 747.007 43.5184C749.575 43.0937 752.435 43.0402 755.016 43.3688C755.302 43.3635 755.599 43.9232 755.316 44.1168C755.033 44.3105 754.465 44.5095 754.182 44.7032C753.899 44.8969 753.62 45.2789 753.909 45.4619C753.913 45.6502 754.492 46.0162 754.778 46.0109C756.494 45.9788 758.493 45.7531 759.62 44.79C760.747 43.827 761.881 43.2406 763.598 43.2086C767.024 42.7678 770.453 42.5153 773.879 42.0746C776.164 41.8435 778.455 41.9891 780.468 42.5167C781.905 42.8667 782.484 43.2326 782.201 43.4263C781.639 44.002 780.781 44.018 779.926 44.2224C778.499 44.4375 777.069 44.4642 775.925 44.4855C775.639 44.4909 775.356 44.6845 774.788 44.8836C778.51 45.0025 782.235 45.3097 785.671 45.4339C787.387 45.4019 788.818 45.3751 790.53 45.1548C793.674 44.9077 796.817 44.6606 799.967 44.7901C801.4 44.9517 802.538 44.5537 803.968 44.527C805.109 44.3173 805.388 43.9353 804.799 43.0043C804.506 42.633 804.503 42.4446 805.071 42.2456C805.357 42.2403 805.926 42.0412 806.498 42.0306C808.79 42.1762 811.079 42.1334 813.364 41.9023C815.076 41.6819 817.082 41.8329 818.798 41.8008C820.801 41.7634 822.238 42.1134 823.402 43.222C824.856 44.5137 826.848 43.9113 828.269 43.3196C829.12 42.9269 829.678 42.1628 830.526 41.5818C832.226 40.6081 834.218 40.0057 836.227 40.3449C839.673 41.0342 842.823 41.1637 846.252 40.9113C847.111 40.8953 847.972 41.0676 848.83 41.0516C849.688 41.0355 849.695 41.4122 849.419 41.9826C848.867 43.1233 849.164 43.6829 850.88 43.6509C855.457 43.5654 860.03 43.2916 864.607 43.2061C865.751 43.1847 867.178 42.9697 867.447 42.0227C867.999 40.882 868.854 40.6776 870.57 40.6455C871.142 40.6349 872 40.6188 872.576 40.7965C873.148 40.7858 873.155 41.1625 873.161 41.5391C872.889 42.2978 874.04 42.6531 874.615 42.8308C876.628 43.3584 878.62 42.756 880.323 41.9706C880.323 41.9706 880.026 41.4109 879.737 41.2279C879.444 40.8566 879.441 40.6683 880.009 40.4692C883.146 39.8455 886.299 40.1634 889.18 41.24L889.177 41.0516C889.762 41.7943 890.631 42.3433 892.054 41.9399L891.771 42.1336C893.774 42.0962 895.769 41.6821 897.775 41.833C899.781 41.984 901.79 42.3233 903.796 42.4742C904.368 42.4635 905.505 42.0655 905.502 41.8771C905.498 41.6888 905.206 41.3175 904.92 41.3228C904.63 41.1398 904.058 41.1505 903.768 40.9675C903.768 40.9675 903.479 40.7845 903.476 40.5962C903.472 40.4079 903.755 40.2142 903.755 40.2142C906.898 39.9671 910.041 39.72 913.184 39.4729C914.897 39.2525 916.338 39.7908 916.93 40.9101C917.23 41.6581 918.381 42.0134 919.528 42.1804C920.962 42.342 922.392 42.3153 923.536 42.2939C929.543 42.1817 935.837 42.0642 941.844 41.952C943.846 41.9146 945.845 41.6889 947.837 41.0865C948.123 41.0811 948.406 40.8875 948.406 40.8875C948.685 40.5055 948.396 40.3225 947.823 40.3331C945.246 40.1929 942.385 40.2463 939.807 40.1061C939.807 40.1061 939.518 39.9231 939.514 39.7347C939.511 39.5464 939.794 39.3527 939.794 39.3527C940.648 39.1484 941.503 38.944 942.365 39.1163C944.946 39.4449 947.238 39.5905 949.805 39.1657C951.232 38.9507 952.955 39.2953 954.386 39.2686C955.816 39.2419 956.963 39.4088 958.397 39.5705C958.407 40.1355 958.128 40.5175 958.135 40.8942C958.428 41.2655 959.006 41.6315 959.579 41.6208C961.012 41.7824 962.732 41.9387 964.166 42.1003C964.452 42.095 964.744 42.4663 965.03 42.461C964.748 42.6546 964.176 42.6653 963.893 42.859C963.324 43.058 962.752 43.0687 961.898 43.2731C961.898 43.2731 961.901 43.4614 961.904 43.6497C961.908 43.8381 962.194 43.8327 962.48 43.8274C965.916 43.9516 969.335 43.1342 971.593 41.3964C972.737 41.375 973.881 41.3537 974.739 41.3377C975.025 41.3323 975.018 40.9556 975.301 40.762C975.012 40.579 974.436 40.4013 974.15 40.4067C973.295 40.611 972.161 41.1974 971.307 41.4018C970.728 41.0358 970.145 40.4815 969.567 40.1155C969.563 39.9271 969.274 39.7441 969.274 39.7441C969.556 39.5505 969.836 39.1684 970.122 39.1631C971.838 39.1311 973.265 38.916 974.981 38.8839C976.697 38.8519 978.134 39.2019 979.296 40.1222C979.874 40.4881 980.443 40.2891 981.008 39.9018C981.574 39.5144 981.85 38.9441 982.422 38.9334C984.989 38.5086 987.271 38.0892 989.849 38.2295C995.583 38.876 1001.3 38.3925 1007.02 38.0973C1008.45 38.0706 1009.58 37.6725 1010.72 37.0861C1011.85 36.4998 1013.28 36.4731 1014.44 37.0167C1015.88 37.9317 1017.6 38.088 1019.6 38.0506C1021.61 38.0132 1023.61 37.9758 1025.9 37.933C1026.18 37.9277 1026.76 38.1053 1027.05 38.2883C1027.34 38.4713 1026.49 39.2407 1025.92 39.2514C1024.49 39.4664 1023.35 39.4878 1021.92 39.7028C1021.35 39.7135 1021.07 40.0955 1021.37 40.4669C1021.37 40.6552 1021.65 40.6499 1021.94 40.6445C1026.22 40.1877 1030.53 40.8609 1034.81 40.0274C1035.09 40.0221 1035.37 39.8284 1035.37 39.8284C1035.09 39.6454 1035.08 39.4571 1034.79 39.0858C1034.5 38.9028 1034.21 38.7198 1033.92 38.3484C1033.92 38.3484 1033.91 37.9718 1034.2 37.9664C1034.48 37.7728 1035.05 37.7621 1035.34 37.7567C1038.2 37.7033 1040.77 37.4669 1043.63 37.6018C1047.35 37.5324 1051.07 37.6512 1054.5 37.2105C1055.93 36.9954 1057.36 37.157 1058.5 37.1357C1061.37 37.2706 1063.95 37.4108 1066.81 37.3574C1067.95 37.336 1068.53 37.702 1068.25 38.084C1067.97 38.2777 1067.68 38.4714 1067.11 38.4821C1063.11 38.7452 1059.4 39.003 1055.38 38.7011C1051.66 38.3939 1047.94 38.6517 1044.51 38.7158C1044.23 38.7211 1043.66 38.9202 1043.66 39.2968C1043.67 39.4852 1043.96 39.8565 1044.25 39.8511C1045.68 40.0128 1046.83 40.1797 1048.26 40.3414C1049.69 40.503 1051.42 40.8476 1053.14 41.3806C1053.43 41.3752 1054 41.1762 1054.57 40.9772C1056.27 40.1918 1058.27 39.7777 1060.27 40.117C1064 40.6125 1067.43 40.3601 1071.15 40.2906C1072.87 40.2586 1074.3 40.2319 1076.01 40.0115C1078.29 39.5921 1080.58 39.7377 1082.88 40.0716C1084.6 40.4162 1086.32 40.5725 1088.32 40.3468C1089.47 40.3254 1090.61 40.4924 1091.76 40.471C1092.62 40.455 1093.48 40.6273 1094.33 40.6113C1102.33 39.7083 1110.34 39.5588 1118.36 39.7858C1118.64 39.7805 1118.93 39.7752 1118.93 39.7752C1119.21 39.5815 1119.78 39.5708 1120.07 39.3771C1120.06 39.1888 1119.77 38.8175 1119.48 38.6345C1118.32 37.9025 1118.32 37.5258 1119.45 37.1278C1121.16 36.7191 1122.87 36.3103 1124.58 36.0899C1126.58 35.6759 1128.58 35.6385 1130.32 36.7364C1130.9 37.1024 1131.47 37.2801 1132.05 37.2694C1134.33 37.0383 1136.63 37.7489 1138.64 37.8999C1140.36 38.0561 1142.36 38.2071 1144.08 37.9867C1146.64 37.5619 1148.94 37.7075 1151.51 37.8478C1154.95 38.1604 1158.38 37.9079 1161.8 37.0905C1162.94 36.6924 1164.37 36.6657 1165.8 36.4507C1166.65 36.4346 1167.8 36.4133 1168.37 36.4026C1170.67 36.7365 1172.68 37.2641 1174.95 36.468C1175.24 36.4627 1175.53 36.4574 1175.53 36.4574C1180.7 37.6795 1186.42 37.3844 1191.58 38.4182C1191.87 38.4129 1191.88 38.9779 1191.88 39.1662C1191.88 39.1662 1191.6 39.3599 1191.32 39.3652C1190.74 39.3759 1190.46 39.3813 1189.89 39.392C1187.59 38.8697 1185.01 38.9178 1182.44 39.1542C1182.16 39.1595 1181.59 39.3585 1181.3 39.5522C1181.02 39.5576 1181.02 39.7459 1181.02 39.9342C1181.03 40.1226 1181.03 40.3109 1181.32 40.3056C1181.61 40.4886 1182.18 40.6662 1182.47 40.6609C1185.62 40.7904 1188.76 40.7317 1192.2 40.6676C1196.2 40.5928 1199.92 40.5233 1203.94 41.0135C1206.8 41.3368 1209.95 41.4664 1212.81 41.0363C1213.09 41.0309 1213.66 40.6436 1213.65 40.4552C1213.65 40.2669 1213.07 39.9009 1212.79 39.9062C1211.64 39.7393 1210.49 39.7607 1209.35 39.5937C1207.91 39.4321 1207.04 38.6947 1206.17 38.1458C1209.9 38.453 1213.91 38.5665 1217.63 38.4971C1219.34 38.465 1221.35 38.616 1223.06 38.5839C1226.21 38.7135 1229.36 38.8431 1232.51 38.7843C1234.8 38.7416 1237.09 39.0755 1239.39 39.2211C1239.96 39.2104 1240.25 39.5817 1239.97 39.7754C1239.97 39.9637 1239.68 39.9691 1239.4 39.9744C1237.4 40.0118 1235.39 40.0492 1233.39 40.0866C1230.53 40.14 1227.95 39.9998 1225.09 40.0532C1224.81 40.0585 1224.53 40.4406 1224.53 40.6289L1224.82 41.0002C1226.84 41.5278 1228.84 41.6788 1230.85 41.8297C1234.86 41.9433 1239.15 41.8631 1243.15 41.9767C1244.3 41.9553 1245.44 41.5573 1246 40.9816C1246.56 40.4059 1246.84 40.0239 1247.4 39.4482C1247.68 39.2545 1248.25 39.0555 1248.54 39.0501C1249.11 39.0394 1249.97 39.0234 1250.55 39.3894C1251.13 39.7554 1250.85 40.1374 1250.57 40.5194C1250.01 41.2834 1250.3 41.6548 1251.16 41.8271C1251.74 42.0047 1252.6 41.9887 1253.17 41.978C1254.03 41.962 1255.17 41.7523 1255.16 41.1873C1255.42 40.0519 1256.56 39.6539 1257.99 39.6272C1260.57 39.5791 1263.13 39.1543 1265.44 40.0533C1265.73 40.0479 1265.73 40.2363 1265.73 40.4246C1265.74 40.6129 1265.74 40.8013 1265.45 40.8066C1264.31 41.0163 1263.46 41.2207 1262.32 41.4304C1262.03 41.4357 1261.75 41.6294 1261.75 41.6294C1262.04 41.8124 1262.04 42.1891 1262.33 42.1837C1266.34 42.4856 1270.35 42.7875 1274.65 43.084C1275.22 43.0734 1275.51 43.068 1276.08 43.0573C1284.08 42.5311 1292.11 43.1348 1299.83 43.1789C1300.41 43.1682 1300.69 43.1629 1301.26 43.1522C1306.69 42.8624 1311.57 43.5249 1316.74 44.3704C1318.17 44.532 1319.32 44.5107 1320.75 44.484C1322.17 44.2689 1323.6 44.0539 1324.75 44.2208C1330.2 44.8727 1335.63 44.5828 1341.07 44.858C1345.94 45.1438 1350.51 44.87 1355.39 45.7209C1356.54 45.8879 1357.97 45.8611 1359.4 45.8344C1363.4 45.7596 1367.12 45.6902 1370.85 46.1858C1370.57 46.3794 1370 46.5785 1369.72 46.7721C1369.43 46.7775 1369.43 46.9658 1369.44 47.1541C1369.44 47.3425 1369.73 47.5255 1369.73 47.5255C1370.31 47.7031 1370.59 47.5094 1370.58 47.1328C1370.58 46.7561 1370.57 46.5678 1370.57 46.1911C1372 46.1644 1373.42 45.9493 1374.57 45.928C1377.72 46.0575 1380.87 46.1871 1384.02 46.505C1386.89 46.8283 1390.04 46.9578 1392.9 46.9044C1395.76 46.851 1398.34 47.1796 1400.37 48.6489C1401.82 49.5638 1403.82 49.5264 1405.23 48.558C1406.64 47.5897 1407.79 47.38 1409.51 47.5362C1410.65 47.7032 1411.8 47.6818 1412.95 48.0371C1416.68 48.721 1420.41 49.2166 1424.41 49.1418C1425.27 49.1258 1426.13 49.2981 1426.99 49.4704C1427.57 49.648 1428.15 50.2024 1427.59 50.5897C1427.3 50.7834 1427.03 51.1654 1426.74 51.1708C1423.88 51.2242 1420.73 51.0946 1417.87 51.148C1417.58 51.1534 1417.01 51.3524 1416.73 51.3577L1416.45 51.7397C1417.03 52.4824 1417.91 53.2197 1419.34 53.5697C1421.64 54.0919 1424.22 54.4205 1426.8 54.3725C1426.8 54.7491 1427.1 55.3088 1427.11 55.6855C1427.41 56.8101 1428.29 57.5475 1430.01 57.8921C1431.44 58.0537 1433.16 58.3983 1434.32 58.942C1435.18 59.3026 1436.62 59.4642 1437.47 59.2599C1441.46 58.4317 1445.48 58.7336 1449.5 59.6005C1450.07 59.7781 1450.93 59.9504 1451.5 59.7514C1456.36 59.4723 1460.96 60.7051 1465.55 61.1847C1467.56 61.524 1469.56 61.6749 1471.56 61.4492C1475.85 60.9924 1480.14 61.1006 1484.44 61.5854C1485.88 61.7471 1487.59 61.715 1489.31 61.6829C1490.46 61.8499 1491.6 61.8285 1492.47 62.1892C1494.48 62.9051 1496.2 63.0614 1498.49 63.0187C1503.07 63.3099 1507.66 63.6011 1512.24 63.8923C1513.67 64.0539 1514.82 64.2208 1515.98 64.7645C1516.26 64.9475 1516.27 65.3242 1516.28 65.5125C1516.28 65.5125 1515.99 65.7062 1515.71 65.7115C1519.98 64.5014 1517.97 64.1621 1516.24 63.4408ZM1123.01 44.2204L1123.01 44.0321C1123.01 44.0321 1123.02 44.4088 1123.01 44.2204C1123.3 44.2151 1123.3 44.0267 1123.58 44.0214L1123.59 44.2097C1123.3 44.2151 1123.3 44.2151 1123.01 44.2204ZM604.02 48.2612C604.023 48.4496 604.023 48.4496 604.027 48.6379C604.03 48.8263 604.03 48.8263 604.033 49.0146C604.027 48.6379 604.023 48.4496 604.02 48.2612ZM731.662 49.457C731.665 49.6453 731.952 49.64 731.955 49.8283C731.665 49.6453 731.665 49.6453 731.662 49.457ZM1482.82 66.8909C1483.11 67.0739 1483.4 67.2569 1483.69 67.4399C1483.69 67.4399 1483.98 67.6228 1484.26 67.6175C1484.55 67.6122 1484.55 67.4238 1484.83 67.4185C1484.54 67.2355 1484.54 67.0472 1484.25 66.8642C1483.68 66.8749 1483.11 67.0739 1482.82 66.8909ZM500.633 59.2353C501.205 59.2246 501.777 59.2139 502.349 59.2032C502.635 59.1979 502.921 59.1925 502.918 59.0042C502.918 59.0042 503.201 58.8105 503.197 58.6222C502.911 58.6275 502.332 58.2615 502.05 58.4552C501.481 58.6542 500.912 58.8533 500.633 59.2353ZM698.096 44.6203C698.968 45.3576 700.401 45.5192 701.832 45.4925C702.404 45.4818 703.262 45.4658 703.252 44.9008C703.531 44.5188 702.666 44.1581 701.808 44.1742C700.667 44.3839 699.24 44.5989 698.096 44.6203ZM1394.09 49.3314C1395.24 50.0634 1396.4 50.607 1398.11 50.575C1399.54 50.5483 1400.69 50.5269 1402.12 50.5002C1402.69 50.4895 1402.97 50.2958 1402.39 49.7415C1399.81 49.6012 1396.95 49.4663 1394.09 49.3314C1393.51 49.3421 1393.23 49.3474 1392.66 49.3581C1392.37 49.3635 1392.08 49.3688 1392.08 49.3688L1391.8 49.5625C1392.09 49.5571 1392.66 49.7348 1392.94 49.5411C1393.23 49.5358 1393.8 49.3368 1394.09 49.3314ZM1388.69 51.8813C1388.99 52.2526 1389.28 52.6239 1389.86 52.9899C1390.44 53.3559 1391.31 53.9049 1392.16 53.8889C1395.6 54.2014 1398.76 54.5193 1402.18 54.0785C1402.47 54.0732 1402.75 53.6912 1402.74 53.3145C1402.74 53.1262 1402.16 52.7602 1401.87 52.7655C1401.3 52.7762 1400.44 52.7923 1399.87 52.8029C1396.16 53.2491 1392.72 52.9365 1388.69 51.8813C1386.69 51.9187 1384.69 52.1444 1382.69 52.1818C1382.12 52.1925 1381.83 52.1978 1381.26 52.2085C1380.98 52.4022 1380.7 52.5959 1380.7 52.7842C1380.99 52.9672 1381.28 53.1502 1381.85 53.1395C1384.15 53.4734 1386.42 52.6774 1388.69 51.8813ZM1061.53 46.499C1064.13 47.7693 1066.99 47.5275 1070.14 47.4688C1070.42 47.0868 1070.13 46.9038 1069.55 46.7261C1068.69 46.3655 1068.11 45.9995 1068.38 45.2408C1068.65 44.6704 1069.51 44.2778 1070.36 44.0734C1070.93 43.8744 1071.79 43.8583 1072.36 43.8477C1073.22 43.8316 1074.08 43.8156 1075.22 43.7942C1076.36 43.7729 1076.93 43.1972 1076.35 43.0195C1076.06 42.8365 1075.49 42.6589 1075.2 42.6642C1072.06 43.0997 1068.91 43.1584 1065.77 43.2172C1064.34 43.2439 1064.06 43.6259 1064.65 44.5569C1065.24 45.4879 1064.96 46.0582 1063.53 46.2733C1062.96 46.4723 1062.11 46.4883 1061.53 46.499C1061.25 46.5044 1061.25 46.5044 1060.96 46.5097C1061.25 46.5044 1061.53 46.499 1061.53 46.499ZM1370.94 51.0825C1368.94 51.4965 1367.23 51.9053 1365.24 52.5077L1365.25 52.8843C1367.55 53.595 1369.84 53.7406 1372.41 53.5041C1372.7 53.4988 1372.7 53.3105 1372.98 53.1168C1372.98 52.9284 1373.26 52.7348 1372.97 52.7401C1372.1 52.0028 1371.52 51.4485 1370.94 51.0825C1373.5 50.0927 1376.35 49.851 1379.5 49.9805C1380.93 49.9538 1382.08 50.1208 1383.51 50.0941C1383.8 50.0887 1384.08 49.7067 1384.36 49.513C1384.36 49.513 1384.07 49.3301 1384.07 49.1417C1382.34 48.6088 1380.9 48.0705 1379.17 47.5375C1376.04 48.538 1372.61 48.4137 1369.18 48.4778C1367.75 48.5045 1366.6 48.3376 1365.17 48.3643C1364.88 48.3696 1364.31 48.5687 1364.03 48.7623C1364.03 48.7623 1363.75 48.956 1363.75 49.1443C1363.75 49.3327 1364.04 49.5157 1364.04 49.5157C1365.19 49.6826 1366.34 49.6613 1367.48 49.6399C1368.62 49.4302 1370.06 49.9685 1370.94 51.0825ZM1413.28 50.6685C1413.29 51.2335 1413.02 51.8039 1413.03 52.3689C1412.75 52.9392 1412.47 53.5096 1411.33 53.7193C1410.76 53.9183 1409.91 54.1226 1410.49 54.677C1415.94 55.5171 1421.67 55.787 1427.39 55.3034C1427.96 55.2928 1428.24 54.9108 1428.23 54.7224C1428.23 54.5341 1427.65 54.1681 1427.37 54.1734C1426.79 53.9958 1425.93 54.0118 1425.36 54.0225C1423.36 54.4366 1421.36 54.0973 1419.34 53.5697C1418.19 53.2144 1417.61 52.6601 1417.31 51.912C1417 50.7874 1416.14 50.4267 1414.42 50.4588C1414.14 50.6525 1413.57 50.6632 1413.28 50.6685ZM277.382 56.0572C272.261 57.66 271.406 57.8644 266.833 58.1382C262.256 58.2237 257.682 58.4975 253.106 58.5829C248.815 58.6631 244.524 58.7432 240.233 58.8233C239.947 58.8287 239.665 59.0224 239.665 59.0224C239.382 59.216 239.675 59.5874 240.247 59.5767C243.394 59.5179 246.537 59.2708 249.687 59.4004C257.41 59.2561 265.137 59.3002 272.857 58.9677C275.145 58.9249 277.43 58.6939 279.722 58.8394C286.022 59.0986 292.594 58.599 298.884 58.2932C301.172 58.2504 303.454 57.831 305.449 57.417C305.449 57.417 305.732 57.2233 305.728 57.035C305.725 56.8466 305.439 56.852 305.436 56.6636C302.286 56.5341 299.136 56.4045 295.986 56.2749C292.839 56.3337 289.7 56.7691 286.546 56.4512C283.41 57.075 280.257 56.7571 277.382 56.0572ZM210.767 59.1853C205.618 59.2814 200.183 59.3829 195.034 59.4791C194.462 59.4898 193.607 59.6941 193.035 59.7048C193.035 59.7048 192.753 59.8985 192.756 60.0868C192.76 60.2752 192.763 60.4635 193.049 60.4582C193.91 60.6305 194.772 60.8028 195.63 60.7867C201.923 60.6692 207.934 60.7454 214.227 60.6278C218.231 60.553 222.519 60.2846 226.523 60.2098C227.096 60.1991 227.664 60.0001 228.233 59.8011C228.233 59.8011 228.512 59.419 228.226 59.4244C227.651 59.2467 227.072 58.8808 226.5 58.8914C221.351 58.9876 215.916 59.0891 210.767 59.1853ZM238.18 56.0357C243.04 55.7565 247.054 56.2468 251.056 55.9836C253.344 55.9409 255.633 55.8982 257.921 55.8554C264.214 55.7379 270.79 55.4267 277.083 55.3092C277.941 55.2931 278.503 54.7174 278.213 54.5344C277.924 54.3514 277.631 53.9801 277.345 53.9855C274.192 53.6676 271.042 53.538 267.899 53.7851C264.187 54.2312 260.189 54.6827 256.46 54.1871C255.888 54.1978 255.602 54.2031 255.03 54.2138C251.321 54.8483 247.313 54.7347 243.309 54.8095C241.878 54.8362 240.162 54.8683 238.18 56.0357ZM1444.39 61.7683C1445.82 61.7416 1447.54 61.8979 1448.97 61.8712C1454.69 62.141 1460.42 62.4108 1465.88 63.4394C1469.04 64.1339 1472.18 63.8868 1475.31 63.0747C1475.6 63.0694 1475.88 62.8757 1475.59 62.6927C1475.59 62.5044 1475.58 62.1277 1475.29 61.9447C1473.57 61.4118 1471.27 61.2662 1469.27 61.1152C1462.11 61.0604 1454.67 60.8227 1447.51 60.7679C1446.66 60.7839 1445.8 60.7999 1444.94 61.0043C1444.38 61.2033 1444.09 61.397 1444.39 61.7683ZM322.541 53.1414C325.119 53.2816 326.552 53.4433 327.983 53.4165C335.992 53.267 343.998 52.929 351.721 52.7848C352.579 52.7688 353.438 52.7527 354.292 52.5484C354.578 52.543 355.147 52.344 355.43 52.1503C355.43 52.1503 355.709 51.7683 355.423 51.7737C354.847 51.596 354.269 51.23 353.696 51.2407C346.838 51.7456 340.245 51.1151 333.39 51.8084C329.954 51.6841 326.815 52.1196 322.541 53.1414ZM365.721 51.5814C368.019 52.1036 370.308 52.0609 372.593 51.8298C379.74 51.5079 387.174 51.1807 394.322 50.8588C394.894 50.8481 395.749 50.6437 396.321 50.6331C396.893 50.6224 397.172 50.2404 396.883 50.0574C396.88 49.869 396.594 49.8744 396.308 49.8797C391.445 49.9705 386.871 50.2443 381.998 49.7702C380.565 49.6085 378.848 49.6406 377.132 49.6726C373.127 49.7474 371.129 49.9732 365.721 51.5814ZM1267.59 48.491C1266.45 48.5124 1265.31 48.5337 1264.16 48.5551C1263.88 48.5604 1263.31 48.9478 1263.31 49.1361C1263.32 49.3245 1263.61 49.6958 1263.9 49.6905C1267.63 50.3743 1271.35 50.4932 1275.35 50.2301C1277.07 50.198 1278.49 49.983 1280.21 49.9509C1283.36 50.0805 1286.51 50.2101 1289.66 50.3397C1291.38 50.3076 1293.38 50.2702 1295.1 50.2382C1295.38 50.2328 1295.66 50.0391 1295.66 50.0391C1295.66 49.8508 1295.37 49.4795 1295.08 49.2965C1293.92 48.7528 1292.49 48.7796 1291.06 48.8063C1287.63 48.8704 1284.2 48.7461 1280.77 48.9986C1277.34 49.251 1274.17 48.3681 1270.74 48.2439C1269.88 48.4483 1268.74 48.4696 1267.59 48.491ZM1337.17 50.7712C1336.31 50.7872 1335.74 50.7979 1334.88 51.0023C1334.6 51.0076 1334.32 51.2013 1333.75 51.4003C1334.04 51.5833 1334.33 51.7663 1334.9 51.9439C1335.76 52.1163 1336.62 52.2886 1337.48 52.2725C1343.21 52.5424 1348.93 52.6239 1354.66 52.7053C1354.94 52.7 1355.23 52.6947 1355.23 52.5063C1355.51 52.501 1355.51 52.3126 1355.51 52.1243C1355.5 51.936 1355.5 51.7476 1355.21 51.753C1352.64 51.6127 1349.77 51.2895 1347.19 51.1492C1344.04 51.0196 1340.6 50.8954 1337.17 50.7712ZM999.272 37.1115C997.555 37.1436 995.556 37.3693 993.84 37.4013C993.554 37.4067 992.989 37.794 992.992 37.9824C992.995 38.1707 993.292 38.7304 993.578 38.725C997.593 39.2153 1001.6 39.3288 1005.6 38.8773C1005.88 38.872 1006.45 38.4846 1006.45 38.2963C1006.44 38.108 1006.15 37.7366 1005.86 37.5536C1003.85 37.026 1001.56 37.0688 999.272 37.1115ZM1471.1 67.4866C1471.67 67.4759 1471.96 67.4706 1472.24 67.4652C1472.53 67.2715 1472.81 67.0779 1473.09 66.8842C1472.8 66.7012 1472.51 66.3299 1472.22 66.3352C1469.65 66.1949 1466.78 65.8717 1464.2 65.7314C1461.91 65.7742 1459.62 65.6286 1457.61 65.2893C1455.89 65.133 1454.18 65.1651 1452.17 65.0141C1452.17 65.0141 1451.89 65.2078 1451.89 65.3961C1451.89 65.5845 1452.18 65.7675 1452.18 65.7675C1452.76 65.9451 1453.62 65.9291 1454.19 66.1068C1458.49 66.215 1462.78 66.5115 1466.8 67.19C1468.24 67.3517 1469.95 67.3196 1471.1 67.4866ZM982.013 47.9842L982.302 48.1672C987.74 48.254 993.179 48.3408 998.614 48.2393C1001.76 48.1806 1004.9 47.9335 1008.62 47.6757C997.728 46.7487 996.591 47.1467 982.013 47.9842ZM301.373 53.5367C296.204 52.5029 291.637 53.1533 287.074 53.9922C286.788 53.9975 286.792 54.1858 286.795 54.3742C286.798 54.5625 286.802 54.7508 287.088 54.7455C287.949 54.9178 288.811 55.0901 289.669 55.0741C293.674 54.9993 297.382 54.3648 301.373 53.5367ZM653.608 52.9871C652.457 52.6318 651.306 52.2765 649.869 51.9265C648.718 51.5712 647.577 51.7809 646.726 52.1736C645.874 52.5663 645.602 53.325 646.181 53.691C647.049 54.24 647.632 54.7943 647.359 55.553C647.369 56.118 648.806 56.468 649.375 56.2689C650.792 55.4889 651.922 54.7142 653.339 53.9341C653.332 53.5574 653.329 53.3691 653.608 52.9871ZM1346.58 48.8999C1346.29 48.9052 1347.44 48.8838 1348.58 48.6741C1348.86 48.6688 1349.43 48.2814 1349.42 48.0931C1349.42 47.9048 1349.41 47.5281 1349.13 47.3451C1348.26 46.7961 1347.1 46.2525 1346.25 46.6452C1343.4 47.2636 1340.54 47.1287 1337.68 47.5588C1337.4 47.5641 1337.4 47.7525 1337.4 47.9408C1337.41 48.1292 1337.7 48.3121 1337.7 48.3121C1339.71 49.0281 1342.29 48.98 1346.58 48.8999ZM1353.9 57.9948C1355.32 57.7797 1356.75 57.753 1357.89 57.5433C1358.18 57.538 1358.18 57.3496 1358.17 57.1613C1358.17 56.973 1357.87 56.4133 1357.59 56.4186C1354.72 56.2837 1351.86 55.9605 1348.99 55.8256C1347.85 55.8469 1346.71 56.0566 1345.56 56.078C1344.99 56.0887 1344.71 56.2824 1344.71 56.659C1344.72 56.8474 1345.3 57.2134 1345.58 57.208C1348.74 57.7143 1351.32 57.8545 1353.9 57.9948ZM786.321 49.7549C787.465 49.7336 788.606 49.5239 789.747 49.3142C790.033 49.3088 790.598 48.9215 790.595 48.7331C790.874 48.3511 790.578 47.7915 790.285 47.4201C788.542 45.9455 784.264 46.779 783.726 48.673C783.73 48.8613 784.023 49.2327 784.312 49.4157C785.174 49.588 785.746 49.5773 786.321 49.7549ZM1294.16 46.1108C1295.6 46.2724 1296.73 45.686 1296.72 45.121C1296.71 44.556 1296.7 43.991 1296.4 43.4314C1295.53 42.5057 1293.52 42.3548 1292.39 42.9411C1291.54 43.3338 1291.56 44.6522 1292.72 45.3842C1293.01 45.7555 1293.87 45.9278 1294.16 46.1108ZM684.276 55.8055C685.134 55.7895 686.847 55.5691 688.274 55.3541C688.56 55.3487 689.129 55.1497 689.412 54.956C689.412 54.956 689.408 54.7677 689.405 54.5793C689.401 54.391 689.115 54.3964 688.826 54.2134C686.817 53.8741 684.811 53.7231 682.819 54.3255C682.25 54.5246 681.685 54.9119 681.402 55.1056C681.12 55.2993 681.988 55.8483 682.846 55.8322C683.132 55.8269 683.418 55.8215 684.276 55.8055ZM189.818 55.8085C188.677 56.0182 187.533 56.0396 186.388 56.061C185.816 56.0717 185.534 56.2653 185.54 56.642C185.544 56.8303 185.83 56.825 186.116 56.8197C188.122 56.9706 190.127 57.1215 192.133 57.2725C192.705 57.2618 193.563 57.2458 194.132 57.0467C194.418 57.0414 194.697 56.6594 195.266 56.4604C194.977 56.2774 194.684 55.9061 194.398 55.9114C192.967 55.9381 191.537 55.9648 189.818 55.8085ZM722.188 47.7499C723.047 47.7339 723.619 47.7232 723.901 47.5295C724.184 47.3358 724.467 47.1422 724.46 46.7655L724.167 46.3942C722.727 45.8559 720.442 46.0869 719.311 46.8617L719.318 47.2383C720.183 47.599 721.327 47.5776 722.188 47.7499ZM1048.68 47.6811C1049.53 47.4767 1049.82 47.4714 1050.39 47.4607C1050.67 47.267 1050.96 47.0734 1050.95 46.6967C1050.95 46.6967 1050.66 46.5137 1050.66 46.3254C1049.22 45.9754 1047.79 46.0021 1046.08 46.2225C1045.51 46.2332 1045.23 46.6152 1045.52 46.7982C1045.52 46.9865 1045.8 46.9812 1045.81 47.1695C1046.96 47.5248 1047.82 47.5088 1048.68 47.6811ZM866.388 46.7524C866.098 46.5694 866.095 46.3811 866.095 46.3811C863.8 46.0472 861.225 46.0952 858.654 46.3317C858.082 46.3423 857.799 46.536 858.092 46.9073C858.096 47.0957 858.382 47.0903 858.668 47.085C861.252 47.6019 863.823 47.3655 866.388 46.7524ZM613.047 56.9474C612.189 56.9634 611.334 57.1678 610.762 57.1785C610.476 57.1838 610.193 57.3775 610.193 57.3775C609.91 57.5712 609.917 57.9479 610.493 58.1255C611.068 58.3032 611.647 58.6691 612.222 58.8468C613.373 59.2021 614.8 58.9871 615.641 58.0293C615.924 57.8357 615.628 57.276 615.342 57.2813C614.48 57.109 613.622 57.1251 613.047 56.9474ZM777.804 53.4936C779.234 53.4669 780.082 52.8858 780.355 52.1272C780.351 51.9388 780.059 51.5675 779.769 51.3845C778.618 51.0292 777.477 51.2389 776.626 51.6316C776.057 51.8306 776.071 52.584 776.36 52.767C776.939 53.1329 777.515 53.3106 777.804 53.4936ZM967.36 44.6783C967.07 44.4953 966.774 43.9356 966.774 43.9356C965.344 43.9623 964.203 44.172 962.773 44.1987C962.487 44.2041 962.49 44.3924 962.493 44.5807C962.497 44.7691 962.5 44.9574 962.5 44.9574C963.947 45.8724 965.092 45.851 966.798 45.2539C966.798 45.2539 967.077 44.8719 967.36 44.6783ZM1139.22 38.4542C1140.36 38.2445 1141.22 38.2284 1142.07 38.0241C1142.65 38.0134 1142.93 37.6314 1142.63 37.2601C1142.63 37.0717 1142.34 37.0771 1142.05 36.8941C1140.33 36.5495 1138.61 36.5815 1136.91 37.3669L1136.92 37.7436C1137.78 38.1042 1138.65 38.2765 1139.22 38.4542ZM883.898 49.8166C886.762 49.9515 888.195 50.1131 889.629 50.2747C889.915 50.2694 890.198 50.0757 890.198 50.0757C890.191 49.6991 889.901 49.5161 889.615 49.5214C887.896 49.3651 886.176 49.2088 883.898 49.8166ZM1129.37 47.6813C1130.52 47.6599 1131.09 47.6492 1131.37 47.6439C1131.66 47.6385 1132.23 47.2512 1132.51 47.0575C1132.79 46.8638 1131.92 46.3148 1131.06 46.3309C1129.63 46.3576 1128.49 46.5673 1127.06 46.594C1126.78 46.5993 1126.49 46.793 1126.49 46.793C1126.78 46.976 1126.79 47.3527 1127.36 47.342C1128.23 47.7026 1129.09 47.6866 1129.37 47.6813ZM909.224 41.996C909.227 42.1844 909.227 42.1844 908.945 42.378C909.803 42.362 910.664 42.5343 911.519 42.33C912.377 42.3139 913.239 42.4862 913.801 41.9106C912.37 41.9373 910.654 41.9693 909.224 41.996ZM462.04 61.2748C462.037 61.0865 462.033 60.8982 461.747 60.9035C460.879 60.3545 459.735 60.3759 458.887 60.9569C458.604 61.1506 458.611 61.5273 458.614 61.7156C459.489 62.6412 461.206 62.6092 461.761 61.6568C462.047 61.6515 462.043 61.4632 462.04 61.2748ZM1053.17 43.0756C1053.16 42.5106 1052.87 41.9509 1052.3 42.1499C1052.01 42.1553 1051.44 42.3543 1051.16 42.548C1050.88 42.7416 1050.6 43.1237 1050.6 43.312C1050.32 43.694 1050.91 44.2483 1051.48 44.2376C1052.62 44.0279 1053.19 43.8289 1053.17 43.0756ZM919.586 45.3821C919.297 45.1991 919.004 44.8278 918.718 44.8331C917.86 44.8491 917.005 45.0535 916.147 45.0695C915.861 45.0749 915.578 45.2685 915.578 45.2685C915.581 45.4569 915.874 45.8282 915.878 46.0165C916.746 46.5655 917.89 46.5442 918.738 45.9631C919.31 45.9524 919.303 45.5758 919.586 45.3821ZM230.733 55.6096C228.727 55.4587 228.727 55.4587 227.018 55.8674C228.162 55.846 229.313 56.2013 230.733 55.6096ZM756.619 52.9472C756.616 52.7589 756.613 52.5706 756.323 52.3876C755.744 52.0216 755.169 51.8439 754.604 52.2313C754.321 52.425 754.038 52.6186 754.045 52.9953C754.049 53.1837 754.627 53.5496 754.913 53.5443C755.482 53.3453 756.051 53.1463 756.619 52.9472ZM1294.06 56.0979C1294.34 56.0926 1294.63 55.8989 1294.63 55.8989C1294.62 55.7106 1294.62 55.5222 1294.62 55.5222C1293.76 55.3499 1293.18 54.9839 1292.32 54.8116C1292.03 54.817 1291.74 54.8223 1291.74 54.8223C1291.75 55.0107 1291.75 55.3873 1291.76 55.5757C1292.34 56.13 1293.2 56.3023 1294.06 56.0979ZM927.663 48.9992C928.807 48.9778 929.376 48.7788 929.369 48.4022C929.363 48.0255 929.073 47.8425 928.501 47.8532C927.929 47.8639 927.36 48.0629 927.081 48.4449C927.088 48.8216 927.377 49.0046 927.663 48.9992ZM830.342 47.2372C830.053 47.0542 829.474 46.6882 829.184 46.5052C828.609 46.3276 828.044 46.7149 827.478 47.1023C827.199 47.4843 827.495 48.044 828.071 48.2216C829.218 48.3886 830.07 47.9959 830.342 47.2372ZM536.692 59.5038C536.978 59.4985 537.264 59.4931 537.264 59.4931C538.119 59.2888 538.681 58.7131 538.957 58.1427C538.953 57.9544 538.66 57.5831 538.371 57.4001L537.799 57.4108C536.661 57.8088 536.096 58.1961 536.399 59.1325C536.399 59.1325 536.689 59.3155 536.692 59.5038ZM815.702 60.5102C815.695 60.1335 815.405 59.9505 814.833 59.9612C814.261 59.9719 813.979 60.1656 813.985 60.5422C813.992 60.9189 814.282 61.1019 814.854 61.0912C815.426 61.0805 815.708 60.8868 815.702 60.5102ZM1441.01 65.2225C1441.3 65.2171 1441.87 65.2065 1442.16 65.2011C1442.44 65.1958 1442.72 64.8138 1442.72 64.6254L1442.43 64.4424C1441.57 64.4585 1440.71 64.2861 1439.86 64.4905C1439.57 64.4959 1439.29 64.8779 1439.01 65.0715C1439.29 65.0662 1439.3 65.2545 1439.58 65.2492C1440.16 65.2385 1440.44 65.2332 1441.01 65.2225ZM1164.95 37.22C1164.38 37.2307 1163.53 37.8117 1163.82 37.9947C1164.11 38.1777 1164.4 38.3607 1164.97 38.35C1165.26 38.3447 1165.54 38.3394 1165.54 38.3394C1165.83 38.1457 1166.4 37.9467 1166.39 37.7583C1166.39 37.57 1166.1 37.387 1165.52 37.2093C1165.52 37.2093 1165.24 37.2147 1164.95 37.22ZM951.062 45.3594C951.634 45.3488 951.92 45.3434 951.92 45.3434C952.492 45.3327 952.774 45.1391 952.485 44.9561C952.485 44.9561 952.196 44.7731 951.91 44.7784C951.624 44.7837 951.337 44.7891 951.337 44.7891C950.765 44.7998 950.197 44.9988 949.628 45.1978C950.197 44.9988 950.772 45.1764 951.062 45.3594ZM876.91 43.1647C876.907 42.9764 876.904 42.788 876.9 42.5997C876.328 42.6104 875.753 42.4327 875.181 42.4434C874.895 42.4488 874.612 42.6424 874.612 42.6424C874.901 42.8254 874.908 43.2021 875.194 43.1968C875.77 43.3744 876.338 43.1754 876.91 43.1647ZM1202.35 48.2023C1202.63 48.197 1203.21 48.3747 1203.78 48.364C1204.35 48.3533 1204.92 47.7776 1204.91 47.4009C1204.62 47.0296 1203.75 46.8573 1203.19 47.0563C1202.33 47.2607 1201.77 47.648 1202.35 48.2023ZM1300.49 47.6883C1301.06 47.6776 1301.92 47.6616 1302.2 47.4679C1302.49 47.4626 1302.48 47.0859 1302.76 46.7039C1302.47 46.5209 1301.89 46.3432 1301.61 46.3486C1301.32 46.3539 1300.75 46.5529 1300.47 46.7466C1300.19 46.9403 1300.48 47.3116 1300.49 47.6883ZM1322.86 50.85C1322.86 50.6616 1322.86 50.4733 1322.57 50.4786C1321.71 50.118 1320.85 50.134 1320 50.5267C1320 50.5267 1319.72 50.9087 1320 50.9034C1320.3 51.2747 1321.16 51.447 1321.73 51.248C1322.3 51.2373 1322.58 50.8553 1322.86 50.85ZM548.396 57.9664C548.393 57.7781 548.103 57.5951 548.103 57.5951C547.531 57.6058 546.959 57.6165 546.101 57.6325C545.815 57.6378 545.532 57.8315 545.532 57.8315C545.822 58.0145 545.829 58.3912 546.115 58.3858C547.548 58.5475 548.689 58.3378 548.396 57.9664ZM479.949 54.7232C480.232 54.5295 480.8 54.3305 480.797 54.1422C481.076 53.7601 480.211 53.3995 479.639 53.4102C479.353 53.4155 478.788 53.8029 478.791 53.9912C478.516 54.5616 479.094 54.9275 479.949 54.7232ZM604.717 55.219C605.003 55.2136 605.007 55.402 605.293 55.3966C605.865 55.3859 606.151 55.3806 606.72 55.1816C607.006 55.1762 607.002 54.9879 606.999 54.7996C606.992 54.4229 606.131 54.2506 605.276 54.455C604.707 54.654 604.425 54.8477 604.717 55.219ZM1234.7 48.917C1235.27 48.9063 1235.55 48.901 1235.55 48.5243C1235.54 48.336 1235.26 48.3413 1234.97 48.3467C1234.69 48.352 1234.11 48.3627 1233.83 48.5564C1233.55 48.7501 1234.12 48.9277 1234.7 48.917ZM507.26 61.7491C507.832 61.7384 508.114 61.5447 508.107 61.1681C507.818 60.9851 507.529 60.8021 506.956 60.8128C506.671 60.8181 506.102 61.0171 505.819 61.2108C505.819 61.2108 505.826 61.5875 506.112 61.5821C506.401 61.7651 506.687 61.7598 507.26 61.7491ZM1146.26 47.7427C1146.25 47.5544 1146.53 47.3607 1146.53 46.9841C1146.53 46.9841 1146.24 46.8011 1145.95 46.8064C1145.67 47.0001 1145.39 47.1938 1145.39 47.3821C1145.4 47.7588 1145.69 47.9418 1146.26 47.7427ZM908.501 49.5455C908.787 49.5401 909.07 49.3465 909.642 49.3358C909.353 49.1528 909.349 48.9644 909.349 48.9644C909.063 48.9698 908.495 49.1688 908.208 49.1742C908.212 49.3625 908.212 49.3625 908.501 49.5455ZM795.801 51.8387C796.088 51.8333 796.37 51.6397 796.37 51.6397C796.649 51.2576 796.074 51.08 795.505 51.279C795.219 51.2844 794.937 51.478 794.654 51.6717C794.94 51.6664 794.943 51.8547 795.229 51.8494C795.229 51.8494 795.515 51.844 795.801 51.8387ZM1425.55 64.381C1425.83 64.3756 1426.12 64.3703 1426.12 64.3703C1426.4 64.3649 1426.4 64.1766 1426.4 64.1766C1426.12 64.1819 1425.83 63.9989 1425.25 64.0096L1424.97 64.2033C1425.26 64.198 1425.54 64.1926 1425.55 64.381ZM1171.88 40.4819C1171.88 40.6702 1171.88 40.8585 1172.17 40.8532C1172.75 41.0308 1173.03 40.8372 1173.03 40.6488C1173.02 40.4605 1173.02 40.2722 1172.73 40.2775C1172.44 39.9062 1172.16 40.0998 1171.88 40.4819ZM1250.43 48.6232C1250.42 48.4349 1250.42 48.2465 1250.42 48.2465C1250.14 48.2519 1249.56 48.2625 1249.28 48.2679C1249.28 48.4562 1249.28 48.6446 1249.57 48.6392C1249.86 49.0105 1250.15 49.0052 1250.43 48.6232ZM1202.58 44.9953C1202.86 44.99 1203.43 44.7909 1203.72 44.7856C1203.71 44.5973 1203.42 44.2259 1203.42 44.2259C1203.14 44.2313 1202.56 44.242 1202.57 44.4303C1201.71 44.6347 1202 44.8176 1202.58 44.9953ZM1193.76 47.7976C1194.04 47.7923 1194.33 47.5986 1194.9 47.5879C1194.89 47.3996 1194.89 47.2112 1194.6 47.2166C1194.32 47.2219 1194.03 47.2273 1193.46 47.4263C1193.75 47.6093 1193.76 47.7976 1193.76 47.7976ZM611.609 72.423L611.319 72.24L611.04 72.622L611.609 72.423ZM1185.75 47.9472C1186.03 47.9418 1186.03 47.7535 1186.32 47.7482C1186.31 47.5598 1186.03 47.5652 1186.03 47.5652C1185.45 47.3875 1185.17 47.5812 1185.46 47.9525C1185.18 47.9579 1185.46 47.9525 1185.75 47.9472ZM1172.41 38.3995C1172.98 38.3888 1173.27 38.1951 1173.26 38.0068C1173.26 37.8184 1172.97 37.6355 1172.97 37.6355C1172.68 37.6408 1172.4 37.8345 1171.83 37.8452C1172.12 38.0282 1172.41 38.2111 1172.41 38.3995ZM648.688 49.8762C648.974 49.8709 648.97 49.6825 649.256 49.6772C649.253 49.4889 648.967 49.4942 648.963 49.3059C648.388 49.1282 648.105 49.3219 648.398 49.6932C648.115 49.8869 648.401 49.8816 648.688 49.8762ZM658.767 53.456C658.488 53.838 658.777 54.021 659.346 53.8219L659.339 53.4453C659.053 53.4506 658.767 53.456 658.767 53.456ZM576.994 57.0555L577.001 57.4322L577.57 57.2332L576.994 57.0555ZM988.813 44.2776L989.103 44.4606C989.675 44.4499 989.957 44.2562 989.668 44.0732C989.668 44.0732 989.382 44.0786 989.096 44.0839C989.096 44.0839 988.81 44.0893 988.813 44.2776ZM1084.15 47.0187C1084.43 47.0133 1084.43 47.0133 1084.72 46.8196L1084.43 46.6367C1084.43 46.6367 1084.14 46.642 1083.86 46.8357C1083.86 47.024 1083.86 47.024 1084.15 47.0187ZM804.666 51.4847C805.238 51.474 805.813 51.6517 805.8 50.8984C805.8 50.8984 805.227 50.909 804.655 50.9197L804.373 51.1134C804.38 51.4901 804.666 51.4847 804.666 51.4847ZM1381.37 58.0469L1381.66 58.2299L1381.94 58.0362L1381.65 57.8532C1381.65 57.8532 1381.36 57.8586 1381.37 58.0469ZM1410.97 49.2045C1411.25 49.1992 1411.25 49.0109 1411.53 49.0055L1411.25 48.8225C1411.25 48.8225 1410.96 48.8279 1410.68 49.0216C1410.68 49.0216 1410.68 49.0216 1410.97 49.2045ZM1353.09 61.2125C1353.38 61.2072 1353.38 61.0188 1353.66 61.0135C1353.66 60.8251 1353.37 60.8305 1353.37 60.6421C1352.8 60.4645 1352.51 60.6582 1352.81 61.0295C1352.52 61.2232 1352.81 61.2178 1353.09 61.2125ZM409.888 57.1621L410.46 57.1514C410.739 56.7694 410.453 56.7747 409.881 56.7854C409.595 56.7907 409.598 56.9791 409.312 56.9844C409.312 56.9844 409.598 56.9791 409.888 57.1621ZM314.531 53.291C314.528 53.1026 314.239 52.9196 314.239 52.9196C313.953 52.925 313.38 52.9357 313.098 53.1293C313.101 53.3177 313.391 53.5007 313.391 53.5007C313.677 53.4953 313.959 53.3016 314.531 53.291ZM675.563 48.6207C675.849 48.6154 675.852 48.8037 676.135 48.61L676.417 48.4163C676.41 48.0397 675.838 48.0504 675.556 48.244C675.27 48.2494 675.559 48.4324 675.563 48.6207ZM1394.32 46.501C1394.03 46.318 1394.03 46.318 1393.75 46.3234C1393.46 46.3287 1393.46 46.5171 1393.18 46.5224C1393.47 46.7054 1393.47 46.7054 1393.75 46.7001C1393.75 46.7001 1394.04 46.6947 1394.32 46.501ZM709.814 43.8362C709.528 43.8416 709.524 43.6532 709.242 43.8469C708.673 44.0459 708.676 44.2343 709.248 44.2236C709.248 44.2236 709.534 44.2183 709.821 44.2129C709.817 44.0246 709.817 44.0246 709.814 43.8362ZM1092.33 40.272C1092.04 40.2773 1092.04 40.089 1091.75 40.0943C1091.18 40.2934 1091.18 40.4817 1091.76 40.6593L1092.33 40.6487C1092.33 40.6487 1092.33 40.4603 1092.33 40.272ZM1413.8 63.47L1413.51 63.287L1413.51 63.4753L1413.8 63.47ZM793.68 45.2843L793.674 44.9077L793.105 45.1067L793.68 45.2843ZM1417.18 60.7692L1417.75 60.5701L1417.46 60.3872L1417.18 60.7692ZM742.783 63.1908L743.072 63.3738L743.069 63.1855L742.783 63.1908ZM1111.9 46.8771C1112.19 46.8718 1112.19 46.8718 1112.47 46.6781C1112.47 46.4898 1112.46 46.3014 1112.18 46.3068C1112.18 46.3068 1111.89 46.3121 1111.61 46.5058C1111.61 46.6941 1111.61 46.6941 1111.9 46.8771ZM1011.13 43.8609L1010.84 43.6779L1010.55 43.8716L1010.84 44.0546C1010.84 44.0546 1010.84 43.8662 1011.13 43.8609ZM1097.51 42.2475L1097.22 42.0645C1097.22 42.0645 1096.94 42.0699 1096.65 42.2636L1096.94 42.4465C1097.23 42.2529 1097.51 42.2475 1097.51 42.2475ZM851.578 50.6086L851.571 50.2319L851.002 50.4309L851.578 50.6086ZM1212.18 53.6708C1212.75 53.8484 1213.03 53.6547 1212.74 53.2834C1212.74 53.2834 1212.45 53.2888 1212.17 53.2941C1212.17 53.4824 1212.18 53.6708 1212.18 53.6708ZM1260.39 45.6112L1260.96 45.4122L1260.67 45.2292L1260.39 45.6112ZM637.246 50.0899C637.532 50.0846 637.528 49.8962 637.814 49.8909L637.525 49.7079C637.525 49.7079 637.242 49.9016 636.956 49.9069C636.956 49.9069 636.96 50.0953 637.246 50.0899ZM639.36 56.2676C639.356 56.0793 639.067 55.8963 639.067 55.8963C638.781 55.9016 638.498 56.0953 637.926 56.106C637.93 56.2943 638.219 56.4773 638.219 56.4773C638.505 56.4719 638.788 56.2783 639.36 56.2676ZM1491.42 67.4839L1491.71 67.6669L1491.99 67.4733L1491.7 67.2903C1491.7 67.2903 1491.7 67.2903 1491.42 67.4839ZM1352.23 44.838C1352.8 45.0156 1353.09 44.822 1352.79 44.4506C1352.79 44.4506 1352.51 44.456 1352.22 44.4613C1351.93 44.4667 1352.22 44.6496 1352.23 44.838ZM657.555 49.7106C657.841 49.7053 658.127 49.6999 658.124 49.5116C658.117 49.1349 658.117 49.1349 657.545 49.1456L657.262 49.3393C657.266 49.5276 657.555 49.7106 657.555 49.7106ZM897.219 58.6109L896.929 58.428C896.929 58.428 896.647 58.6216 896.361 58.627L896.65 58.81C896.936 58.8046 897.222 58.7993 897.219 58.6109ZM602.354 51.1183C602.358 51.3067 602.358 51.3067 602.361 51.495C602.647 51.4897 602.647 51.4897 602.933 51.4843C602.93 51.296 602.927 51.1076 602.927 51.1076C602.927 51.1076 602.64 51.113 602.354 51.1183ZM994.524 43.6057C994.81 43.6004 995.096 43.5951 995.093 43.4067C995.093 43.4067 995.089 43.2184 994.8 43.0354C994.514 43.0407 994.228 43.0461 994.231 43.2344C994.521 43.4174 994.524 43.6057 994.524 43.6057ZM949.56 41.4311L949.553 41.0544L948.985 41.2535L949.56 41.4311ZM385.015 58.3802L385.008 58.0035L384.439 58.2025L385.015 58.3802ZM505.711 55.1841L505.707 54.9957L505.135 55.0064L505.711 55.1841ZM1323.89 44.4252C1324.18 44.4198 1324.18 44.4198 1324.46 44.2262L1324.17 44.0432C1324.17 44.0432 1323.89 44.0485 1323.89 44.2369C1323.6 44.2422 1323.89 44.4252 1323.89 44.4252ZM1318.79 46.9697L1318.79 47.158L1319.07 46.9644L1318.79 46.9697Z" fill="#F5F5F5"/>
<path d="M621.616 40.2083C625.328 39.7621 628.474 39.7034 631.611 39.0796C632.465 38.8752 633.323 38.8592 634.182 38.8432C638.762 38.9461 643.332 38.4839 647.902 38.0218C648.474 38.0111 648.76 38.0057 649.332 37.995C649.618 37.9897 650.193 38.1674 650.483 38.3503C651.065 38.9047 650.496 39.1037 649.928 39.3027C649.645 39.4964 649.076 39.6954 649.08 39.8837C649.09 40.4488 649.948 40.4327 650.524 40.6104C651.957 40.772 653.677 40.9283 655.39 40.7079C659.102 40.2618 662.538 40.386 666.256 40.3165C666.828 40.3059 667.114 40.3005 667.69 40.4782C667.979 40.6612 668.269 40.8442 668.562 41.2155L668.282 41.5975C665.435 42.4043 662.299 43.028 659.142 42.5218C656.561 42.1932 654.273 42.2359 651.698 42.284C646.836 42.3748 641.683 42.2827 636.82 42.3735C636.82 42.3735 636.528 42.0022 636.814 41.9968C638.234 41.4051 639.96 41.9381 641.384 41.5347C641.952 41.3357 642.235 41.142 641.945 40.959C641.942 40.7706 641.656 40.776 641.37 40.7813C637.934 40.6571 634.501 40.7212 631.069 40.7853C627.626 40.2844 624.766 40.3378 621.616 40.2083Z" fill="#F5F5F5"/>
<path d="M554.755 45.6017C549.034 45.7086 543.313 45.8154 537.592 45.9223C535.304 45.965 533.019 46.1961 531.03 46.9868C529.892 47.3849 528.748 47.4062 527.601 47.2393C525.881 47.083 524.727 46.5394 525.006 46.1573C525.568 45.5816 526.422 45.3773 527.281 45.3613C529.855 45.3132 532.426 45.0768 534.718 45.2224C537.868 45.3519 541.014 45.2932 544.444 45.0407C545.874 45.014 547.301 44.799 548.448 44.9659C552.17 45.0848 555.599 44.8324 559.311 44.3863C564.167 43.9188 568.748 44.0216 573.61 43.9308C574.182 43.9201 574.472 44.1031 575.044 44.0924C575.33 44.0871 575.334 44.2754 575.623 44.4584C575.916 44.8297 575.636 45.2118 575.35 45.2171C573.924 45.4321 572.211 45.6525 570.494 45.6846C566.483 45.3827 562.196 45.6512 558.194 45.9143C557.043 45.559 555.899 45.5804 554.755 45.6017Z" fill="#F5F5F5"/>
<path d="M570.702 41.3475C570.416 41.3529 570.42 41.5412 570.134 41.5465C567.563 41.783 564.706 42.0247 562.138 42.4495C561.566 42.4602 561.283 42.6538 560.711 42.6645C554.704 42.7767 548.99 43.2602 542.983 43.3724C541.839 43.3938 540.691 43.2268 539.823 42.6778C539.823 42.6778 539.533 42.4948 539.816 42.3012C539.813 42.1128 540.099 42.1075 540.095 41.9192C540.378 41.7255 540.378 41.7255 540.664 41.7201C550.383 41.1618 560.102 40.6035 570.12 40.7932C570.406 40.7879 570.41 40.9762 570.696 40.9709C570.413 41.1645 570.413 41.1645 570.702 41.3475Z" fill="#F5F5F5"/>
<path d="M1111.43 36.7124C1110.86 36.723 1109.43 36.7497 1108.28 36.5828C1108 36.5881 1107.7 36.2168 1107.7 35.8401C1107.69 35.6518 1108.26 35.2644 1108.55 35.2591C1110.83 35.2164 1113.12 35.1736 1115.13 35.3246C1115.41 35.3192 1115.71 35.6905 1115.71 35.8789C1115.71 36.0672 1115.15 36.4546 1114.86 36.4599C1113.72 36.6696 1112.86 36.6856 1111.43 36.7124Z" fill="#F5F5F5"/>
<path d="M606.176 40.8734C605.318 40.8894 604.46 40.9055 603.601 40.9215C603.315 40.9268 603.026 40.7439 602.737 40.5609C602.733 40.3725 603.019 40.3672 603.016 40.1788C605.577 39.3774 608.434 39.1357 611.584 39.2652C611.87 39.2599 612.159 39.4429 612.159 39.4429C612.162 39.6312 611.883 40.0132 611.597 40.0186C609.888 40.4273 608.175 40.6477 606.176 40.8734Z" fill="#F5F5F5"/>
<path d="M116.569 56.0461C114.863 56.6432 113.429 56.4816 111.999 56.5083C109.135 56.3734 105.992 56.6205 103.121 56.1089C102.835 56.1142 102.832 55.9259 102.828 55.7376C102.825 55.5492 103.107 55.3556 103.107 55.3556C105.971 55.4905 108.835 55.6254 111.978 55.3783C113.695 55.3462 114.842 55.5132 116.569 56.0461Z" fill="#F5F5F5"/>
<path d="M586.711 40.4834C586.428 40.677 586.432 40.8654 586.149 41.059C584.736 42.0274 583.023 42.2478 581.014 41.9085C580.438 41.7309 579.57 41.1819 579.853 40.9882C580.135 40.7946 580.414 40.4125 580.701 40.4072C582.124 40.0038 583.834 39.5951 585.267 39.7567C585.839 39.746 586.422 40.3004 586.711 40.4834Z" fill="#F5F5F5"/>
<path d="M1085.96 36.4345C1082.81 36.3049 1081.39 37.085 1079.66 36.3637C1079.38 36.369 1079.38 36.1807 1079.37 35.9923C1079.37 35.804 1079.37 35.804 1079.65 35.6103C1079.65 35.422 1079.93 35.4166 1080.22 35.4113C1083.37 35.3525 1086.51 35.2938 1089.66 35.4233C1089.95 35.418 1090.24 35.7893 1090.53 35.9723C1090.25 35.9777 1090.25 36.166 1089.96 36.1713C1087.96 36.3971 1086.25 36.4291 1085.96 36.4345Z" fill="#F5F5F5"/>
<path d="M1303.46 37.8361C1306.03 37.788 1308.32 37.7453 1310.89 37.6972C1312.32 37.6705 1313.48 38.0258 1314.35 38.7631C1314.64 38.9461 1314.36 39.3281 1314.07 39.5218C1313.79 39.7154 1313.22 39.9145 1312.94 39.9198C1310.35 39.0262 1307.49 39.0796 1304.61 38.3797C1304.32 38.1967 1304.03 38.0137 1303.46 37.8361Z" fill="#F5F5F5"/>
<path d="M718.276 37.0842C717.701 36.9066 716.553 36.7396 715.406 36.5726C715.12 36.578 715.116 36.3897 715.113 36.2013C715.396 36.0076 715.389 35.631 715.672 35.4373C717.095 35.0339 718.239 35.0125 719.394 35.5562C719.683 35.7392 719.972 35.9222 719.979 36.2988C719.983 36.4872 719.414 36.6862 719.128 36.6915C719.421 37.0629 719.135 37.0682 718.276 37.0842Z" fill="#F5F5F5"/>
<path d="M1564.73 70.6364C1567.58 70.3946 1569.88 70.7286 1572.18 71.2508C1569.32 71.6809 1569.32 71.6809 1564.73 70.6364Z" fill="#F5F5F5"/>
<path d="M772.36 37.2046C774.934 37.1565 777.22 36.9254 779.508 36.8827C780.08 36.872 780.37 37.055 780.376 37.4316C780.38 37.62 780.094 37.6253 779.808 37.6307C777.236 37.8671 774.945 37.7215 772.36 37.2046Z" fill="#F5F5F5"/>
<path d="M1149.12 32.2405C1152.55 31.6113 1154.83 31.3803 1157.13 31.9025C1154.28 32.7093 1154.28 32.7093 1149.12 32.2405Z" fill="#F5F5F5"/>
<path d="M1173.74 32.5344C1170.32 33.1635 1170.32 33.1635 1167.45 32.8402C1167.45 32.8402 1167.16 32.6572 1167.44 32.4636C1167.44 32.2752 1167.72 32.2699 1168.01 32.2645C1169.72 31.8558 1171.73 32.1951 1173.74 32.5344Z" fill="#F5F5F5"/>
<path d="M618.237 43.2857C617.665 43.2964 616.804 43.1241 616.232 43.1348C615.946 43.1401 615.656 42.9572 615.656 42.9572C615.653 42.7688 615.932 42.3868 616.215 42.1931C617.349 41.6068 618.782 41.7684 620.216 41.93C620.502 41.9247 621.081 42.2906 621.084 42.479C621.088 42.6673 620.808 43.0493 620.236 43.06C619.382 43.2644 618.81 43.2751 618.237 43.2857Z" fill="#F5F5F5"/>
<path d="M771.438 33.6422C773.729 33.7878 776.011 33.3684 778.03 34.2727C774.611 35.0901 774.611 35.0901 771.438 33.6422Z" fill="#F5F5F5"/>
<path d="M754.06 37.9231C756.055 37.5091 756.338 37.3154 756.91 37.3047C757.482 37.294 758.34 37.278 758.912 37.2673C760.057 37.2459 761.204 37.4129 762.641 37.7629C760.353 37.8056 758.064 37.8483 754.06 37.9231Z" fill="#F5F5F5"/>
<path d="M599.93 43.6276C602.484 42.4496 603.911 42.2345 605.638 42.7675L605.644 43.1441C603.938 43.7412 601.926 43.2136 599.93 43.6276Z" fill="#F5F5F5"/>
<path d="M1299.76 39.2239C1296.62 39.6593 1294.03 38.7657 1290.88 38.8245C1290.6 38.8298 1290.31 38.8352 1290.31 38.8352L1290.31 38.6468C1293.45 38.2114 1296.61 38.906 1299.76 39.2239Z" fill="#F5F5F5"/>
<path d="M1015.8 33.4116C1014.94 33.4276 1014.08 33.067 1014.36 32.8733C1014.64 32.6796 1014.92 32.2976 1015.21 32.2923C1015.78 32.0933 1016.64 32.0772 1017.21 32.0666C1017.49 32.0612 1017.78 32.0559 1017.78 32.2442C1018.07 32.2389 1018.07 32.4272 1018.36 32.6102C1018.65 32.9815 1018.37 33.1752 1017.8 33.3742C1017.52 33.3796 1017.52 33.5679 1017.23 33.5732C1016.66 33.3956 1016.37 33.4009 1015.8 33.4116Z" fill="#F5F5F5"/>
<path d="M687.424 39.9212C686.004 40.5129 684.577 40.728 683.147 40.7547C683.147 40.7547 682.857 40.5717 682.854 40.3834C682.851 40.195 682.847 40.0067 683.133 40.0014C684.56 39.7863 685.987 39.5713 687.424 39.9212Z" fill="#F5F5F5"/>
<path d="M988.263 29.5928C990.262 29.367 991.974 29.1466 993.697 29.4912C993.415 29.6849 992.846 29.8839 992.56 29.8893C991.13 29.916 989.703 30.131 988.263 29.5928Z" fill="#F5F5F5"/>
<path d="M1277.72 38.8819C1277.43 38.6989 1277.15 38.7042 1276.86 38.5212C1277.14 38.3276 1277.42 38.1339 1277.71 37.9402C1278.56 37.7358 1279.43 38.2848 1278.86 38.4838C1278.58 38.8659 1278.29 38.8712 1277.72 38.8819Z" fill="#F5F5F5"/>
<path d="M1211.29 36.3546C1209.58 36.7633 1208.17 37.5434 1206.16 37.2041C1205.87 37.2094 1205.87 37.0211 1205.86 36.8328C1205.86 36.6444 1205.86 36.4561 1206.14 36.4507C1207.85 36.042 1209.58 36.575 1211.29 36.3546Z" fill="#F5F5F5"/>
<path d="M1134.26 32.8949C1133.68 32.9056 1133.39 32.7226 1133.39 32.346C1133.38 32.1576 1133.67 32.1523 1133.96 32.1469C1134.24 31.9533 1134.81 31.9426 1135.1 31.9372C1135.38 31.9319 1135.96 32.1095 1136.25 32.2925C1135.97 32.4862 1135.69 32.8682 1135.4 32.8736C1135.11 32.8789 1134.54 32.8896 1134.26 32.8949Z" fill="#F5F5F5"/>
<path d="M797.321 40.8832C797.032 40.7002 796.745 40.7055 796.456 40.5225C796.742 40.5172 796.739 40.3288 797.025 40.3235C797.311 40.3181 797.883 40.3075 798.169 40.3021C798.741 40.2914 799.031 40.4744 798.748 40.6681C798.748 40.6681 798.465 40.8618 798.179 40.8671C798.179 40.8671 797.893 40.8725 797.321 40.8832Z" fill="#F5F5F5"/>
<path d="M514.15 47.1137C513.86 46.9307 513.288 46.9414 512.999 46.7584C512.709 46.5754 513.274 46.188 514.133 46.172C514.419 46.1667 514.705 46.1613 514.705 46.1613C514.994 46.3443 515.284 46.5273 515.573 46.7103C515.29 46.904 515.004 46.9093 514.436 47.1083C514.436 47.1083 514.436 47.1083 514.15 47.1137Z" fill="#F5F5F5"/>
<path d="M682.527 38.1287C681.097 38.1554 680.521 37.9777 681.09 37.7787C681.376 37.7734 681.948 37.7627 682.234 37.7574C682.52 37.752 682.81 37.935 683.099 38.118C683.099 38.118 682.813 38.1233 682.527 38.1287Z" fill="#F5F5F5"/>
<path d="M929.469 38.0384C929.186 38.232 928.614 38.2427 928.328 38.2481C927.756 38.2587 927.463 37.8874 927.746 37.6937C928.028 37.5001 928.597 37.301 928.887 37.484C929.173 37.4787 929.179 37.8554 929.469 38.0384Z" fill="#F5F5F5"/>
<path d="M1010.57 29.1761C1009.72 29.1921 1009.43 29.3858 1009.15 29.3911C1008.86 29.3964 1008.58 29.4018 1008.29 29.2188C1008.57 29.2134 1008.57 29.2134 1008.86 29.2081C1009.43 29.1974 1009.72 29.1921 1010.57 29.1761Z" fill="#F5F5F5"/>
<path d="M771.438 33.6422C770.586 34.0349 769.449 34.4329 768.594 34.6373C768.308 34.6426 768.018 34.4597 767.729 34.2767L768.008 33.8946C769.153 33.8733 770.297 33.8519 771.438 33.6422Z" fill="#F5F5F5"/>
<path d="M892.865 39.2872C893.43 38.8998 893.709 38.5178 894.278 38.3188C894.561 38.1251 895.133 38.1144 895.422 38.2974C895.712 38.4804 896.004 38.8517 896.008 39.0401C896.015 39.4167 895.739 39.9871 895.746 40.3638L896.028 40.1701C894.877 39.8148 894.012 39.4541 892.865 39.2872Z" fill="#F5F5F5"/>
<path d="M816.344 32.6151C816.633 32.7981 816.923 32.9811 817.212 33.1641C816.929 33.3578 816.647 33.5515 816.361 33.5568C815.503 33.5728 814.92 33.0185 815.203 32.8248C815.489 32.8195 815.775 32.8141 816.344 32.6151Z" fill="#F5F5F5"/>
<path d="M1643.87 0.581034C1643.3 0.591718 1643.01 0.408725 1643.01 0.220389C1643 0.0320537 1643.86 0.0160268 1644.15 0.0106846C1644.43 0.00534228 1644.72 0.188336 1644.72 0.188336C1644.73 0.376671 1644.44 0.570349 1643.87 0.581034Z" fill="#F5F5F5"/>
<path d="M693.952 36.9733C693.949 36.785 693.949 36.785 694.231 36.5913C694.518 36.586 694.517 36.586 694.803 36.5806C694.803 36.5806 695.093 36.7636 695.096 36.9519C694.81 36.9573 694.814 37.1456 694.528 37.151C694.528 37.151 694.242 37.1563 693.952 36.9733Z" fill="#F5F5F5"/>
<path d="M1444.71 48.0092C1445 48.0038 1445.28 47.8101 1445.85 47.7994C1445.85 47.7994 1446.14 47.9824 1446.14 48.1708C1445.86 48.1761 1445.57 48.3698 1445 48.3805C1444.72 48.3858 1444.71 48.1975 1444.71 48.0092Z" fill="#F5F5F5"/>
<path d="M1155.66 29.6692C1155.37 29.6746 1155.09 29.6799 1155.08 29.4916C1155.08 29.1149 1155.36 29.1096 1155.93 29.0989L1156.22 29.2819C1156.23 29.4702 1155.94 29.4755 1155.66 29.6692Z" fill="#F5F5F5"/>
<path d="M817.277 36.7425L816.987 36.5595C817.27 36.3658 817.556 36.3605 817.849 36.7318C817.845 36.5435 817.563 36.7371 817.277 36.7425Z" fill="#F5F5F5"/>
<path d="M827.523 33.7251C827.52 33.5368 827.234 33.5421 827.231 33.3538C827.227 33.1655 827.513 33.1601 827.799 33.1548C828.371 33.1441 828.378 33.5208 828.096 33.7144C827.809 33.7198 827.523 33.7251 827.523 33.7251Z" fill="#F5F5F5"/>
<path d="M840.11 33.4901C839.824 33.4954 839.827 33.6837 839.541 33.6891C839.255 33.6944 839.251 33.5061 838.965 33.5114C839.251 33.5061 839.248 33.3178 839.534 33.3124C839.817 33.1187 839.82 33.3071 840.11 33.4901Z" fill="#F5F5F5"/>
<path d="M1582.78 72.1832C1582.49 72.1885 1582.49 72.0002 1582.21 72.0055L1582.49 71.8118C1583.06 71.8012 1583.35 71.7958 1583.07 72.1778C1583.35 72.1725 1583.07 72.1778 1582.78 72.1832Z" fill="#F5F5F5"/>
<path d="M968.082 37.1288C968.079 36.9405 967.793 36.9458 967.789 36.7575L968.072 36.5638C968.644 36.5531 968.647 36.7415 968.368 37.1235C968.654 37.1181 968.368 37.1235 968.082 37.1288Z" fill="#F5F5F5"/>
<path d="M656.503 38.9915C656.5 38.8032 656.214 38.8085 656.211 38.6202C656.497 38.6148 656.493 38.4265 656.779 38.4212C657.351 38.4105 657.641 38.5935 657.358 38.7871C657.076 38.9808 656.79 38.9862 656.503 38.9915Z" fill="#F5F5F5"/>
<path d="M1099.12 36.1887C1098.83 36.0057 1098.54 35.8227 1098.25 35.8281C1098.54 35.8227 1098.54 35.6344 1098.82 35.6291C1099.11 35.6237 1099.68 35.613 1099.68 35.8014C1099.97 35.9844 1099.41 36.1834 1099.12 36.1887Z" fill="#F5F5F5"/>
<path d="M805.491 33.7598C804.915 33.5822 804.626 33.3992 804.909 33.2055C805.191 33.0118 805.763 33.0011 806.049 32.9958L806.342 33.3671C806.06 33.5608 805.774 33.5661 805.491 33.7598Z" fill="#F5F5F5"/>
<path d="M1596.81 72.4864L1597.1 72.6694L1596.81 72.6747L1596.81 72.4864Z" fill="#F5F5F5"/>
<path d="M1432.77 52.5652C1433.34 52.3662 1433.91 51.9789 1434.48 51.7799C1434.76 51.7745 1435.05 51.7692 1435.05 51.7692C1435.34 51.9522 1435.34 52.3288 1434.77 52.3395C1433.92 52.5439 1433.35 52.5546 1432.77 52.5652Z" fill="#F5F5F5"/>
<path d="M91.9515 55.5639C91.6655 55.5692 91.6688 55.7576 91.3828 55.7629C90.8073 55.5853 90.8039 55.3969 91.376 55.3863C91.376 55.3863 91.6655 55.5692 91.9515 55.5639Z" fill="#F5F5F5"/>
<path d="M790.32 33.4779C790.606 33.4726 790.603 33.2843 790.889 33.2789C791.175 33.2736 791.178 33.4619 791.464 33.4566C791.178 33.4619 791.182 33.6503 790.896 33.6556C790.61 33.6609 790.32 33.4779 790.32 33.4779Z" fill="#F5F5F5"/>
<path d="M740.98 42.5006L741.262 42.3069L741.552 42.4899L741.269 42.6836L740.98 42.5006Z" fill="#F5F5F5"/>
<path d="M1251.88 33.901L1252.16 33.7073L1252.45 33.8903L1251.88 33.901Z" fill="#F5F5F5"/>
<path d="M1299.76 39.2239L1299.76 38.8472C1299.76 39.0355 1299.48 39.2292 1299.76 39.2239Z" fill="#F5F5F5"/>
</svg>
