<svg width="112" height="46" viewBox="0 0 112 46" fill="none" xmlns="http://www.w3.org/2000/svg">
<rect width="112" height="46" rx="5.13439" fill="white"/>
<g clip-path="url(#clip0)">
<rect x="18.2148" y="11.2844" width="38.9346" height="24.9181" fill="#A1C656"/>
<path d="M33.3842 17.2026L34.4113 17.296C34.5377 17.296 34.6642 17.296 34.68 17.1714L34.8696 16.5017C34.8696 16.4083 34.8695 16.4083 35.0118 16.5017L35.4542 17.2648C35.4917 17.3214 35.5403 17.3699 35.5974 17.4074C35.6544 17.4449 35.7186 17.4706 35.786 17.4829L36.7657 17.7164C36.8921 17.7164 36.9079 17.8099 36.7657 17.841L36.0547 18.0747C36.0224 18.1115 36.0045 18.1584 36.0045 18.207C36.0045 18.2556 36.0224 18.3026 36.0547 18.3394C36.2127 18.6353 36.2917 18.8067 36.4339 19.1337C36.5761 19.4608 36.4338 19.2583 36.3232 19.1337C36.063 18.9139 35.7885 18.711 35.5015 18.5263C35.4453 18.4976 35.383 18.4827 35.3198 18.4827C35.2566 18.4827 35.1942 18.4976 35.1381 18.5263L34.4113 18.8534C34.3165 18.8534 34.2533 18.8534 34.285 18.8534C34.3166 18.8534 34.3956 18.4485 34.4746 18.1837C34.475 18.1257 34.4588 18.0686 34.4281 18.0191C34.3974 17.9696 34.3532 17.9294 34.3006 17.9033L33.3842 17.3894C33.2736 17.3894 33.2736 17.2804 33.3842 17.296" fill="white"/>
<path d="M29.3233 20.1147C29.829 20.0212 29.9711 19.9901 30.4452 19.9278C30.5087 19.9219 30.5701 19.902 30.6248 19.8697C30.6794 19.8374 30.726 19.7933 30.7611 19.7409L31.014 19.0401C31.014 18.9466 31.1088 18.9466 31.172 19.0401L31.567 19.6941C31.6033 19.7468 31.6532 19.789 31.7115 19.8164C31.7698 19.8437 31.8346 19.8553 31.899 19.8498H32.8945C33.0209 19.8498 33.0367 19.8498 32.8945 19.9433C32.5468 20.1613 32.4519 20.2548 32.1358 20.4416C32.1129 20.4517 32.0923 20.4663 32.0751 20.4843C32.0579 20.5024 32.0445 20.5235 32.0357 20.5467C32.0269 20.5699 32.0228 20.5946 32.0238 20.6193C32.0247 20.644 32.0306 20.6684 32.0411 20.6909C32.1991 20.9556 32.2623 21.0958 32.4045 21.3761C32.5467 21.6565 32.4046 21.5007 32.294 21.3761C32.0177 21.2205 31.7328 21.0801 31.4407 20.9556C31.3793 20.9254 31.3117 20.9098 31.2432 20.9098C31.1746 20.9098 31.107 20.9254 31.0456 20.9556L30.1923 21.4696C30.0659 21.4696 30.0027 21.4696 30.0501 21.4696C30.1924 21.1114 30.2397 21.0335 30.3503 20.7531C30.4609 20.4728 30.3503 20.5507 30.1923 20.5196C29.8838 20.411 29.5667 20.3276 29.2443 20.2704C29.1178 20.2704 29.1336 20.2703 29.2443 20.1613" fill="white"/>
<path d="M27.1899 23.8216C27.6481 23.8216 27.8536 23.8216 28.2803 23.8216C28.3519 23.8194 28.4223 23.8031 28.4874 23.7737C28.5525 23.7443 28.611 23.7022 28.6595 23.6502L29.1809 22.9495C29.1809 22.9495 29.3074 22.9495 29.3232 22.9495C29.339 22.9495 29.3231 23.3855 29.4179 23.6814C29.5127 23.9773 29.5286 23.8683 29.655 23.8839L30.5872 24.0241C30.6978 24.0241 30.6978 24.024 30.5872 24.133L29.7024 24.4445C29.5918 24.4445 29.4812 24.6159 29.497 24.7093C29.5128 24.8028 29.497 25.1609 29.497 25.4724C29.497 25.7839 29.4969 25.597 29.3705 25.4724L28.77 24.9585C28.7119 24.9271 28.6467 24.9106 28.5804 24.9106C28.5141 24.9106 28.4489 24.9271 28.3908 24.9585L27.3953 25.4101C27.2689 25.4101 27.2216 25.4101 27.3006 25.4101L27.8852 24.6781C27.9219 24.6404 27.9423 24.5902 27.9423 24.5379C27.9423 24.4857 27.9219 24.4355 27.8852 24.3978C27.6462 24.2528 27.3982 24.1228 27.1426 24.0085C27.032 24.0085 27.1426 23.915 27.1426 23.8994" fill="white"/>
<path d="M34.4588 28.7584C34.1923 28.9116 33.9339 29.0779 33.6845 29.2567C33.6285 29.293 33.5847 29.3451 33.5593 29.4063C33.5339 29.4674 33.528 29.5347 33.5422 29.5993C33.6212 29.9419 33.6528 30.1289 33.7318 30.5026C33.7318 30.6272 33.7319 30.6584 33.6212 30.5026L32.9417 29.9576C32.8877 29.9227 32.8246 29.9042 32.76 29.9042C32.6955 29.9042 32.6323 29.9227 32.5783 29.9576L31.7724 30.5961C31.6618 30.5961 31.6145 30.5961 31.6619 30.5961L32.0411 29.6617C32.0684 29.6066 32.0754 29.5438 32.061 29.4842C32.0466 29.4246 32.0116 29.3717 31.962 29.3346C31.6934 29.1477 31.5355 29.0543 31.251 28.883C30.9666 28.7117 31.251 28.7739 31.251 28.7584C31.6461 28.7584 31.8357 28.7584 32.1991 28.6649C32.2674 28.6553 32.3323 28.6289 32.3875 28.588C32.4428 28.5472 32.4865 28.4933 32.515 28.4313C32.6573 28.0887 32.7206 27.9174 32.8628 27.6059C33.005 27.2944 32.9576 27.4969 32.9892 27.6059C33.084 27.933 33.1314 28.0886 33.2104 28.4157C33.2252 28.4733 33.2605 28.5238 33.3097 28.5581C33.359 28.5923 33.4191 28.6082 33.4791 28.6027C33.7788 28.5791 34.0799 28.5791 34.3797 28.6027C34.4903 28.6027 34.5061 28.6805 34.3797 28.7272" fill="white"/>
<path d="M39.3256 29.3343L38.6776 29.5524C38.6547 29.5625 38.6341 29.577 38.6169 29.595C38.5997 29.613 38.5862 29.6343 38.5773 29.6574C38.5685 29.6806 38.5644 29.7053 38.5654 29.7301C38.5663 29.7548 38.5724 29.7791 38.5829 29.8015C38.6935 30.113 38.7567 30.2843 38.8831 30.5958C39.0095 30.9073 38.8832 30.7204 38.7725 30.5958L38.0772 29.9573C38.0349 29.9146 37.982 29.8835 37.9238 29.8671C37.8656 29.8507 37.8042 29.8497 37.7454 29.8639L37.0659 30.1598C36.9711 30.1598 36.9237 30.1597 36.9553 30.0663L37.224 29.3655C37.2371 29.3086 37.2336 29.2492 37.214 29.1941C37.1945 29.1391 37.1595 29.0905 37.1133 29.054L36.4498 28.3844C36.355 28.2909 36.4498 28.2442 36.4498 28.2909L37.2871 28.5401C37.3099 28.5505 37.3347 28.5563 37.3598 28.5573C37.3849 28.5582 37.4098 28.5542 37.4333 28.5455C37.4568 28.5368 37.4785 28.5236 37.4968 28.5066C37.5151 28.4896 37.5298 28.4692 37.54 28.4466L37.7771 27.8237C37.7771 27.8237 37.777 27.8237 37.8876 27.8237L38.1563 28.6024C38.1793 28.6611 38.2153 28.714 38.2618 28.7571C38.3083 28.8002 38.3641 28.8325 38.425 28.8516L39.2465 29.1319C39.3571 29.1319 39.3729 29.2098 39.2465 29.2409" fill="white"/>
<path d="M43.7184 28.0261L43.0072 28.3066C42.99 28.3226 42.9763 28.3419 42.9669 28.3633C42.9575 28.3847 42.9528 28.4077 42.9528 28.4311C42.9528 28.4544 42.9575 28.4775 42.9669 28.4989C42.9763 28.5204 42.99 28.5397 43.0072 28.5557L43.3865 29.3032C43.3865 29.4122 43.3865 29.4278 43.2759 29.3032C42.9931 29.114 42.7238 28.906 42.47 28.6803C42.426 28.6342 42.3717 28.5989 42.3113 28.5773C42.2509 28.5556 42.1863 28.5482 42.1225 28.5557L41.4587 28.7738C41.3639 28.7738 41.3166 28.7737 41.3324 28.6647C41.3482 28.5557 41.4588 28.2753 41.5378 28.0261C41.5454 27.9656 41.5379 27.9042 41.5158 27.8472C41.4938 27.7901 41.4578 27.7394 41.4113 27.6992L40.6687 26.9671C40.5739 26.8737 40.6687 26.827 40.6687 26.8737L41.5378 27.2164C41.6484 27.2164 41.7749 27.2164 41.7907 27.2164C41.8065 27.2164 41.9327 26.827 42.0117 26.5778C42.0907 26.3286 42.0119 26.5778 42.1383 26.5778L42.47 27.4032C42.5328 27.5256 42.6401 27.6201 42.7704 27.668C43.0749 27.7644 43.3866 27.8373 43.7026 27.886C43.829 27.886 43.8448 27.886 43.7026 27.9951" fill="white"/>
<path d="M46.5781 25.1609C46.3095 25.3477 46.1674 25.4411 45.8988 25.5969C45.8591 25.6198 45.8292 25.6561 45.8147 25.6991C45.8002 25.742 45.8019 25.7888 45.8197 25.8305C45.9303 26.0797 45.9936 26.2043 46.12 26.4379C46.2464 26.6715 46.1199 26.5314 46.0251 26.4379L45.33 26.033C45.2801 26.0115 45.2262 26.0005 45.1718 26.0005C45.1174 26.0005 45.0637 26.0115 45.0138 26.033L44.3975 26.2977C44.3027 26.2977 44.2712 26.2977 44.287 26.2977C44.3028 26.2977 44.4134 25.9551 44.4924 25.7371C44.5039 25.6871 44.4993 25.6348 44.4795 25.5875C44.4597 25.5401 44.4255 25.4999 44.3817 25.4724C44.1131 25.2699 43.9868 25.1452 43.734 24.9272C43.4812 24.7092 43.734 24.8182 43.734 24.8338L44.5241 25.0051C44.5717 25.0104 44.6199 25.0014 44.6622 24.9791C44.7045 24.9569 44.7389 24.9225 44.7609 24.8805C44.8558 24.6158 44.9032 24.4756 44.9822 24.2109C45.0612 23.9461 45.0771 24.1174 45.1087 24.2109L45.3772 24.9428C45.4025 24.9923 45.4407 25.0344 45.4879 25.0645C45.5352 25.0946 45.5897 25.1117 45.6459 25.1141H46.5151C46.6257 25.1141 46.6415 25.1141 46.5151 25.2231" fill="white"/>
<path d="M48.9011 20.8L48.2374 21.4852C48.1991 21.5242 48.1695 21.5707 48.1504 21.6216C48.1314 21.6726 48.1232 21.7269 48.1267 21.7811L48.3638 22.3418C48.3638 22.3418 48.3639 22.4508 48.2691 22.4352C48.0531 22.3916 47.8416 22.3291 47.637 22.2483C47.583 22.2382 47.5273 22.2414 47.4749 22.2577C47.4225 22.274 47.3749 22.3029 47.3366 22.3418C47.0838 22.5754 46.9418 22.6844 46.7047 22.8868C46.4677 23.0893 46.594 22.8868 46.6257 22.8868C46.6573 22.8868 46.7679 22.4663 46.8785 22.186C46.9055 22.1528 46.92 22.1117 46.92 22.0692C46.92 22.0268 46.9055 21.9856 46.8785 21.9524L46.2939 21.6409C46.2939 21.6409 46.2939 21.5475 46.2939 21.5319C46.5496 21.4949 46.8029 21.443 47.0523 21.3762C47.1063 21.3604 47.1557 21.3325 47.1968 21.2946C47.2379 21.2568 47.2697 21.2101 47.2894 21.1581L47.5737 20.3794C47.5737 20.2704 47.5738 20.2549 47.6844 20.3794C47.795 20.504 47.795 20.7688 47.874 21.0179C47.8946 21.0598 47.9303 21.0926 47.9741 21.1099C48.018 21.1271 48.0669 21.1277 48.1111 21.1114C48.3849 21.0211 48.6537 20.9172 48.9168 20.8C49.0274 20.8 49.0432 20.8 48.9168 20.8" fill="white"/>
<path d="M43.8604 17.9499H44.5558C44.6077 17.9451 44.6568 17.9246 44.6964 17.8911C44.736 17.8576 44.764 17.8129 44.7768 17.7631C44.7768 17.4672 44.9032 17.3114 44.9822 17C45.0613 16.6885 45.0614 16.8909 45.093 17L45.33 17.7163C45.3468 17.7599 45.3774 17.797 45.4172 17.8223C45.457 17.8475 45.5038 17.8595 45.5511 17.8565H46.2939C46.3887 17.8565 46.4045 17.8565 46.2939 17.9499L45.7092 18.386C45.684 18.4256 45.6705 18.4715 45.6705 18.5184C45.6705 18.5652 45.684 18.6111 45.7092 18.6508L45.9461 19.2893C45.9461 19.3671 45.9462 19.3983 45.8672 19.2893L45.2826 18.9623C45.2431 18.9355 45.1963 18.9211 45.1483 18.9211C45.1004 18.9211 45.0534 18.9355 45.0139 18.9623L44.4609 19.3827C44.4609 19.3827 44.3503 19.3827 44.4609 19.3827C44.5715 19.3827 44.5715 18.9934 44.6347 18.7286C44.6465 18.6825 44.6437 18.634 44.6268 18.5895C44.6098 18.5449 44.5796 18.5066 44.54 18.4795L43.9553 18.0278C43.9553 18.0278 43.9553 17.9188 43.9553 17.9343" fill="white"/>
<path d="M38.7724 16.9689L39.5783 17.2025C39.6225 17.2188 39.6712 17.2183 39.715 17.201C39.7589 17.1837 39.7947 17.1509 39.8153 17.1091C39.8153 16.8599 39.9416 16.7352 40.0364 16.4549C40.1312 16.1746 40.0365 16.4549 40.1471 16.4549C40.2577 16.782 40.3208 16.9377 40.4156 17.2492C40.4379 17.3039 40.4722 17.3532 40.5159 17.3936C40.5596 17.4339 40.6116 17.4644 40.6685 17.4828L41.4744 17.7009C41.5692 17.7009 41.585 17.7943 41.4744 17.8254L40.8265 18.0747C40.784 18.095 40.7508 18.1301 40.7333 18.1733C40.7158 18.2165 40.7152 18.2646 40.7318 18.3082L40.9688 19.0558C40.9688 19.1493 40.9688 19.1648 40.9688 19.0558L40.3525 18.4328C40.3143 18.394 40.2668 18.3651 40.2144 18.3488C40.162 18.3325 40.1062 18.3292 40.0522 18.3394L39.4517 18.5263C39.4517 18.5263 39.3412 18.5263 39.357 18.4484L39.5625 17.8722C39.573 17.8214 39.5697 17.7687 39.553 17.7195C39.5364 17.6703 39.5069 17.6263 39.4676 17.5919L38.7882 17.0001C38.6934 17.0001 38.7092 16.8755 38.7882 16.9066" fill="white"/>
<path d="M51.4293 16.782L50.813 17.327C50.813 17.4049 50.6865 17.514 50.7181 17.5763C50.7823 17.7363 50.8562 17.8923 50.9394 18.0435C50.9394 18.0435 50.9395 18.1369 50.8447 18.0435L50.2284 17.95C50.1734 17.9466 50.1183 17.9545 50.0666 17.9732C50.0149 17.992 49.9676 18.0213 49.9281 18.0591C49.6595 18.2927 49.5174 18.4173 49.2645 18.6665C49.0117 18.9156 49.1222 18.6665 49.1696 18.6665L49.4542 17.9812C49.4542 17.8878 49.4542 17.7943 49.4542 17.7787L48.8695 17.5763C48.8695 17.5763 48.8695 17.4984 48.8695 17.4673L49.6279 17.2336C49.6838 17.2178 49.7353 17.1901 49.779 17.1524C49.8227 17.1147 49.8575 17.0681 49.8808 17.0156L50.1651 16.3148C50.1651 16.2214 50.2601 16.2058 50.2759 16.3148C50.2917 16.4238 50.3706 16.6574 50.4496 16.8754C50.4808 16.9008 50.5198 16.9146 50.5602 16.9146C50.6005 16.9146 50.6397 16.9008 50.6709 16.8754L51.4135 16.6418C51.4135 16.6418 51.5083 16.6418 51.4135 16.6418" fill="white"/>
<path d="M41.0477 21.7968C41.2057 21.7968 41.2373 21.6723 41.0477 21.6879C38.2754 22.2677 35.6104 23.2657 33.147 24.6469C31.0957 25.7706 29.1545 27.0792 27.348 28.5559C27.1426 28.7272 26.9846 28.7272 26.9372 28.5559C26.8898 28.3846 26.7317 28.0264 26.621 27.6994C26.5104 27.3723 26.4947 27.6994 26.4473 27.6994C26.305 28.1666 26.2419 28.4469 26.0997 28.8674C26.0491 29.0614 25.9246 29.2287 25.7521 29.3346L24.8355 29.9576C24.7249 29.9576 24.6617 30.1133 24.8355 30.1445L25.3887 30.2535C25.6257 30.2535 25.5466 30.4559 25.515 30.5805C25.4202 30.9698 25.3727 31.1411 25.2463 31.5305C25.2463 31.6706 25.2465 31.6862 25.3729 31.5305L26.1629 30.7051C26.2893 30.5649 26.4158 30.4092 26.558 30.4404L27.4269 30.5961C27.6482 30.5961 27.6323 30.5961 27.5849 30.3936C27.4111 29.9887 27.4428 30.051 27.3164 29.7083C27.2804 29.6411 27.2616 29.5663 27.2616 29.4903C27.2616 29.4143 27.2804 29.3395 27.3164 29.2723C29.0085 27.6075 30.897 26.1486 32.9416 24.9272C35.4265 23.4467 38.1213 22.3392 40.9372 21.6411" fill="white"/>
</g>
<g clip-path="url(#clip1)">
<path d="M81.5001 11.5703C78.9961 11.5703 76.5482 12.3129 74.4662 13.704C72.3842 15.0951 70.7616 17.0724 69.8034 19.3858C68.8452 21.6992 68.5945 24.2448 69.083 26.7007C69.5715 29.1566 70.7772 31.4124 72.5477 33.183C74.3183 34.9536 76.5742 36.1593 79.03 36.6478C81.4859 37.1363 84.0315 36.8857 86.3449 35.9274C88.6583 34.9692 90.6356 33.3465 92.0267 31.2645C93.4179 29.1825 94.1604 26.7346 94.1604 24.2306C94.1546 20.8747 92.8189 17.6579 90.4459 15.2849C88.0729 12.9119 84.856 11.5761 81.5001 11.5703ZM81.5001 37.7307C78.83 37.7307 76.2199 36.939 73.9999 35.4556C71.7798 33.9722 70.0495 31.8637 69.0277 29.3969C68.0059 26.9301 67.7384 24.2158 68.2593 21.597C68.7802 18.9783 70.0661 16.5728 71.9541 14.6848C73.8421 12.7968 76.2476 11.511 78.8663 10.9901C81.4851 10.4692 84.1994 10.7365 86.6662 11.7583C89.133 12.7801 91.2413 14.5104 92.7247 16.7305C94.2081 18.9505 95 21.5606 95 24.2306C94.9942 27.8093 93.57 31.2397 91.0396 33.7701C88.5091 36.3006 85.0787 37.7249 81.5001 37.7307Z" fill="#393838"/>
<path d="M86.9575 19.5689C87.4883 19.3083 87.9794 18.9735 88.4158 18.5746C88.404 18.3538 88.404 18.1325 88.4158 17.9117C88.5397 17.6436 88.6954 17.3914 88.8797 17.1606C88.9902 16.9838 88.4377 17.1606 88.2168 17.1606C87.1341 17.7792 86.8911 17.9781 86.8911 18.0885C86.8911 18.199 86.8911 18.884 86.8911 19.105C86.8911 19.3259 86.8911 19.5909 86.8911 19.5246L86.9575 19.5689ZM84.6816 21.1155C84.8805 21.0051 86.1179 20.2318 86.1179 20.055C86.1179 19.8783 86.1179 19.0606 86.1179 18.8397C86.1179 18.6187 86.1179 18.3537 85.9191 18.5083C84.8364 19.1933 84.5934 19.4142 84.5934 19.5246C84.5934 19.6351 84.5934 20.4084 84.5934 20.6515C84.5934 20.8945 84.5934 21.1818 84.5934 21.1155H84.6816ZM90.3381 17.5583C90.2055 17.7792 90.1171 17.6908 89.7857 17.7349C89.5988 17.7589 89.4226 17.8357 89.2776 17.956L88.3937 18.7292C88.0623 19.0386 88.0843 19.1491 88.261 19.1491C88.7164 19.1975 89.1755 19.1975 89.6309 19.1491C90.0439 18.7184 90.4277 18.2608 90.7799 17.7792C90.9566 17.514 90.5148 17.2931 90.3381 17.6024V17.5583ZM86.0515 20.8504C86.7426 20.9082 87.4375 20.9082 88.1286 20.8504C88.3274 20.7178 89.0786 20.1212 89.41 19.8119C89.7414 19.5025 89.4101 19.6573 88.1507 19.591C87.8875 19.5461 87.6186 19.5461 87.3553 19.591C87.1565 19.7235 86.383 20.2318 86.1179 20.4527C85.8527 20.6737 85.7643 20.7841 86.1179 20.8062L86.0515 20.8504ZM84.4165 22.2645C85.0637 22.3129 85.7137 22.3129 86.3609 22.2645C86.5597 22.1319 87.3109 21.69 87.6644 21.4028C88.0179 21.1155 87.7972 21.2039 86.4936 21.0713C86.2091 21.0147 85.9163 21.0147 85.6318 21.0713L84.5271 21.7784C84.1294 22.0435 84.1293 22.1319 84.4165 22.176V22.2645ZM82.9582 22.7505L83.7538 22.1319C83.9628 21.9969 84.1187 21.794 84.1956 21.5575V20.1212C84.1956 19.8561 84.1956 19.7015 84.1956 19.7899C83.7413 20.1437 83.3395 20.5603 83.0024 21.0272C83.0024 21.1819 83.0024 21.9552 83.0024 22.2424C83.0024 22.5296 83.0024 22.8168 83.0024 22.7505H82.9582ZM89.7636 29.5779C89.0886 30.003 88.3387 30.2953 87.5541 30.4395C86.8692 30.4395 85.9632 30.2186 85.0574 28.7162L82.2734 24.0542C82.2734 24.0542 82.2733 23.9436 82.5164 23.9436C82.7594 23.9436 82.8256 23.9436 83.2454 23.9436C83.6823 23.9402 84.1101 23.818 84.4829 23.5902C84.991 23.3029 85.4771 23.0378 85.4991 22.9052C85.5212 22.7726 85.4992 22.7063 85.3225 22.7063H83.842C83.4187 22.9048 83.0188 23.1493 82.6491 23.4355C82.6491 23.5901 82.2955 23.7228 82.2955 23.6344C82.2862 23.4725 82.2862 23.3101 82.2955 23.1482C82.2955 22.5959 82.2955 22.5296 82.2955 22.4633C82.2955 22.397 82.2955 22.1098 82.2955 21.9109C82.2955 21.7121 82.2956 21.469 82.1188 21.6458C81.8861 21.8251 81.6845 22.0416 81.5222 22.2865C81.5222 22.2865 81.279 22.2865 81.1023 22.2865C79.4673 19.6793 77.9647 17.8676 76.3518 17.3815C75.7084 17.2674 75.0478 17.2974 74.4174 17.4693C73.787 17.6412 73.2027 17.9508 72.7064 18.3758C72.1098 18.7956 71.8446 19.0165 71.8225 19.1491C71.8004 19.2816 71.8225 19.4142 72.0876 19.2816C72.9305 18.6551 73.986 18.3853 75.0262 18.5305C76.0585 18.7819 76.9533 19.4233 77.5229 20.3201C77.766 20.6074 78.9591 22.3087 80.2627 24.3414C80.2627 24.5182 80.2627 24.6287 80.0418 24.8717C77.3865 26.7797 74.9749 29.0057 72.8609 31.5002C72.5074 31.9642 72.861 32.3618 73.2366 32.0966C73.6122 31.8315 73.9656 31.0583 74.2087 30.8152C74.7634 30.0524 75.4345 29.3814 76.1973 28.8266C77.1915 28.2522 77.4124 28.208 77.4344 28.5173C76.9579 29.6882 76.6242 30.9123 76.4403 32.163C76.4403 32.627 76.4404 32.8479 76.573 32.7816C76.7056 32.7153 76.9926 32.141 77.1693 31.9421C77.3461 31.7432 77.9207 31.2129 77.9207 31.0582C77.9207 30.9036 78.6939 28.8487 78.8486 28.5173C78.9994 28.019 79.2309 27.5488 79.5336 27.1253C79.6662 26.9927 79.7988 26.7497 79.5336 26.7055C79.2685 26.6613 78.5614 27.3683 78.1416 27.2579C77.7218 27.1474 78.5392 26.5509 78.8707 26.2858C79.1441 26.0444 79.4401 25.8298 79.7545 25.645C80.062 25.4388 80.4075 25.2961 80.7708 25.2252H80.9256C82.3839 27.5893 83.5769 29.8209 84.1072 30.3733C84.3386 30.7362 84.671 31.0236 85.0636 31.2003C85.4561 31.3769 85.8915 31.4351 86.3166 31.3676C87.529 31.141 88.6715 30.634 89.653 29.8872C90.0286 29.6662 89.9402 29.4011 89.653 29.5337" fill="#393838"/>
</g>
<defs>
<clipPath id="clip0">
<rect width="38.9346" height="24.9181" fill="white" transform="translate(18.2148 11.2844)"/>
</clipPath>
<clipPath id="clip1">
<rect width="27" height="27" fill="white" transform="translate(68 10.7307)"/>
</clipPath>
</defs>
</svg>
