<svg width="91" height="91" viewBox="0 0 91 91" fill="none" xmlns="http://www.w3.org/2000/svg">
<path d="M13.2097 13.3931C22.1385 4.46434 32.9018 0 45.5 0C58.0982 0 68.8309 4.43376 77.6986 13.3014C86.5662 22.1691 91 32.9018 91 45.5C91 58.0982 86.5662 68.8309 77.6986 77.6986C68.8309 86.5662 58.0982 91 45.5 91C32.9018 91 22.1691 86.5662 13.3014 77.6986C4.43376 68.8309 0 58.0982 0 45.5C0 32.9018 4.40318 22.1996 13.2097 13.3931ZM66.7823 49.9032C67.5161 49.5363 68.0665 48.9859 68.4335 48.252C68.8004 47.5181 68.9839 46.7843 68.9839 46.0504C68.9839 45.3165 68.8004 44.5827 68.4335 43.8488C68.0665 43.1149 67.5161 42.5645 66.7823 42.1976L34.4919 22.5665C33.0242 21.7103 31.5565 21.7103 30.0887 22.5665C28.621 23.4227 27.8871 24.707 27.8871 26.4194V64.5806C27.8871 66.293 28.621 67.5773 30.0887 68.4335C31.5565 69.2897 33.0242 69.2897 34.4919 68.4335L66.7823 49.9032Z" fill="white"/>
</svg>
