<svg width="20" height="20" viewBox="0 0 20 20" fill="none" xmlns="http://www.w3.org/2000/svg">
<path d="M10 0C8.62015 0 7.32171 0.263564 6.10465 0.790698C4.88759 1.31783 3.82946 2.031 2.93023 2.93023C2.031 3.82946 1.31783 4.88759 0.790698 6.10465C0.263564 7.32171 0 8.62015 0 10C0 11.3799 0.263564 12.6783 0.790698 13.8953C1.31783 15.1124 2.031 16.1744 2.93023 17.0814C3.82946 17.9884 4.88759 18.7015 6.10465 19.2209C7.32171 19.7403 8.62015 20 10 20C11.3799 20 12.6783 19.7403 13.8953 19.2209C15.1124 18.7015 16.1705 17.9884 17.0698 17.0814C17.969 16.1744 18.6822 15.1124 19.2093 13.8953C19.7364 12.6783 20 11.3799 20 10C20 8.62015 19.7364 7.32171 19.2093 6.10465C18.6822 4.88759 17.969 3.82946 17.0698 2.93023C16.1705 2.031 15.1124 1.31783 13.8953 0.790698C12.6783 0.263564 11.3799 0 10 0ZM15.9535 11.186H11.186V15.9535H8.81395V11.186H4.04651V8.81395H8.81395V4.04651H11.186V8.81395H15.9535V11.186Z" fill="#00693C"/>
</svg>
